<?xml version="1.0" standalone="no"?>
<!DOCTYPE svg PUBLIC "-//W3C//DTD SVG 1.1//EN" "http://www.w3.org/Graphics/SVG/1.1/DTD/svg11.dtd" >
<svg xmlns="http://www.w3.org/2000/svg">
<metadata></metadata>
<defs>
<font id="cmu_sans_serif_demi_condemiCn" horiz-adv-x="972" >
<font-face units-per-em="2048" ascent="1638" descent="-410" />
<missing-glyph horiz-adv-x="649" />
<glyph unicode="&#xfb01;" horiz-adv-x="1036" d="M53 901q0 68 84 68q4 0 11 -1t10 -1v100q0 8 -1 23t-1 22q0 83 19.5 145.5t48.5 96.5t69 55t73 27t70 6q26 0 46.5 -2t34 -6.5t24 -7.5t16 -10.5t9 -10.5t4.5 -12t1 -10v-9v-80q0 -39 -22 -39q-11 0 -25 13.5t-34.5 27t-47.5 13.5q-23 0 -37 -10.5t-20 -32t-8 -41 t-2 -49.5v-209h100q18 0 31 -1.5t29 -7.5t25 -20.5t9 -36.5q0 -65 -86 -65h-104v-744q0 -20 -1.5 -30.5t-8 -27.5t-25.5 -25.5t-49 -8.5h-49q-31 0 -50 7.5t-26.5 22.5t-9.5 27t-2 31v748h-23q-26 0 -44 7.5t-25.5 19t-10 20.5t-2.5 18zM692 1284v47q0 21 2.5 34.5t11 28.5 t27.5 22t49 7h54q50 0 68 -22t18 -70v-45q0 -54 -20 -73t-68 -19h-54q-51 0 -69.5 22t-18.5 68zM696 86v795q0 30 7 48.5t23 26t29 9.5t36 2h14q5 0 13.5 1t12.5 1q50 0 69.5 -22t19.5 -66v-793q0 -44 -17.5 -66t-66.5 -22h-52q-53 0 -70.5 22t-17.5 64z" />
<glyph unicode="&#xfb02;" horiz-adv-x="1036" d="M53 901q0 68 84 68q4 0 11 -1t10 -1v100q0 8 -1 23t-1 22q0 83 19.5 145.5t48.5 96.5t69 55t73 27t70 6q81 0 108 -16.5t27 -49.5v-76q-3 -38 -20 -38q-11 0 -43.5 23.5t-63.5 23.5q-17 0 -30 -5.5t-20 -19.5t-11.5 -23.5t-6 -31t-1.5 -28v-27.5v-207h100q18 0 31 -1.5 t29 -7.5t25 -20.5t9 -36.5q0 -65 -86 -65h-104v-744q0 -20 -1.5 -30.5t-8 -27.5t-25.5 -25.5t-49 -8.5h-49q-31 0 -50 7.5t-26.5 22.5t-9.5 27t-2 31v748h-23q-26 0 -44 7.5t-25.5 19t-10 20.5t-2.5 18zM696 88v1251q0 39 19 61.5t69 22.5q6 0 14 -1l9 -1h27q25 0 42 -6.5 t25.5 -14.5t13 -22t5 -22t0.5 -21v-1257q-2 -78 -86 -78h-52q-30 0 -49 8t-26.5 24.5t-9 27t-1.5 28.5z" />
<glyph unicode="&#xfb03;" horiz-adv-x="1574" d="M53 901q0 68 84 68q4 0 11 -1t10 -1v143q0 96 26 163.5t71.5 103t96.5 50.5t113 15q55 0 88.5 -5t46.5 -17.5t15.5 -21t2.5 -26.5v-57q0 -15 -0.5 -20.5t-2 -15.5t-6.5 -13.5t-13 -3.5q-10 0 -26 12t-41.5 23.5t-57.5 11.5q-27 0 -46 -9.5t-28.5 -21.5t-14.5 -32t-6 -33 t-1 -31v-215h98q19 0 32 -1.5t29.5 -7.5t25.5 -20.5t9 -36.5q0 -65 -88 -65h-102v-744q0 -20 -1.5 -30.5t-8 -27.5t-25.5 -25.5t-49 -8.5h-49q-31 0 -50 7.5t-26.5 22.5t-9.5 27t-2 31v748h-23q-26 0 -44 7.5t-25.5 19t-10 20.5t-2.5 18zM698 68v24v1020q0 93 23 160 t64 102.5t88.5 51.5t105.5 16q101 0 123 -27q8 -12 8 -39v-73q0 -43 -23 -43q-9 0 -40 24.5t-62 24.5q-41 0 -55.5 -32.5t-14.5 -92.5v-217h99q19 0 32 -1.5t29.5 -7.5t25.5 -20.5t9 -36.5q0 -65 -88 -65h-102v-740q0 -2 1 -6t1 -6q0 -41 -20 -62.5t-71 -21.5h-45 q-26 0 -44 7t-26.5 14.5t-13 24t-4.5 22.5zM1233 1284v47q0 21 2.5 34.5t11 28.5t27.5 22t49 7h53q50 0 68 -22t18 -70v-45q0 -54 -20 -73t-68 -19h-53q-51 0 -69.5 22t-18.5 68zM1237 86v795q0 30 7 48.5t22.5 26t28.5 9.5t36 2h15q5 0 13.5 1t12.5 1q51 0 69.5 -22 t18.5 -66v-793q0 -44 -17.5 -66t-66.5 -22h-51q-52 0 -70 22.5t-18 63.5z" />
<glyph unicode="&#xfb04;" horiz-adv-x="1574" d="M53 901q0 68 84 68q4 0 11 -1t10 -1v143q0 96 26 163.5t71.5 103t96.5 50.5t113 15q55 0 88.5 -5t46.5 -17.5t15.5 -21t2.5 -26.5v-57q0 -15 -0.5 -20.5t-2 -15.5t-6.5 -13.5t-13 -3.5q-10 0 -26 12t-41.5 23.5t-57.5 11.5q-27 0 -46 -9.5t-28.5 -21.5t-14.5 -32t-6 -33 t-1 -31v-215h98q19 0 32 -1.5t29.5 -7.5t25.5 -20.5t9 -36.5q0 -65 -88 -65h-102v-744q0 -20 -1.5 -30.5t-8 -27.5t-25.5 -25.5t-49 -8.5h-49q-31 0 -50 7.5t-26.5 22.5t-9.5 27t-2 31v748h-23q-26 0 -44 7.5t-25.5 19t-10 20.5t-2.5 18zM698 68v24v1020q0 82 18.5 143.5 t46.5 96t67.5 56t73.5 28t73 6.5q43 0 79.5 -9.5t45.5 -21.5q8 -12 8 -39v-67q0 -43 -20 -43q-12 0 -42.5 23.5t-62.5 23.5q-40 0 -55 -33t-15 -92v-217h99q19 0 32 -1.5t29.5 -7.5t25.5 -20.5t9 -36.5q0 -65 -88 -65h-102v-740q0 -2 1 -6t1 -6q0 -41 -20 -62.5t-71 -21.5 h-45q-26 0 -44 7t-26.5 14.5t-13 24t-4.5 22.5zM1237 88v1251q0 39 19 61.5t69 22.5q6 0 15 -1l8 -1h26q25 0 42 -6.5t25.5 -14.5t13 -22t5 -22t0.5 -21v-1257q-1 -46 -23.5 -62t-62.5 -16h-51q-30 0 -49 8t-26.5 24.5t-9 27t-1.5 28.5z" />
<glyph horiz-adv-x="0" />
<glyph horiz-adv-x="682" />
<glyph unicode=" "  horiz-adv-x="649" />
<glyph unicode="&#x09;" horiz-adv-x="649" />
<glyph unicode="&#xa0;" horiz-adv-x="649" />
<glyph unicode="!" horiz-adv-x="626" d="M203 88v41q0 54 23 71t67 17h41q32 0 51 -8.5t26 -27.5t8 -29t1 -33v-31q0 -44 -16.5 -66t-65.5 -22h-47q-53 0 -70.5 22t-17.5 66zM203 1350v28q0 21 8.5 32t32.5 11h129q25 0 36 -7.5t11 -33.5l-21 -946q0 -18 -0.5 -24t-4.5 -17t-14 -14.5t-28 -3.5h-16q-7 0 -23 -1 t-24 -1q-47 0 -56 10t-10 60v12z" />
<glyph unicode="&#x22;" d="M209 1386q0 35 39 35h141q23 0 34 -7t11 -30q0 -12 -2 -18l-41 -512q-2 -20 -3 -26.5t-6 -16t-15 -12t-27 -2.5h-29q-39 0 -47.5 10t-11.5 47q-43 494 -43 532zM535 1384q0 18 8 27.5t32 9.5h142q22 0 32.5 -7t10.5 -28v-18l-43 -514q-2 -20 -3 -26.5t-6 -16t-14 -12 t-26 -2.5h-29q-40 0 -49 9.5t-12 47.5q-43 519 -43 530z" />
<glyph unicode="#" horiz-adv-x="1622" d="M109 309q0 25 18.5 45.5t65.5 20.5h294l86 332h-254q-15 0 -40 -1t-37 -1q-69 0 -101 13.5t-32 55.5q0 64 88 64h409l2 2q1 5 127 503q0 1 2.5 9t5 15.5t8.5 17.5t13.5 17t19 12t25.5 5q24 0 43.5 -18t19.5 -45q0 -14 -21 -98.5t-58.5 -228.5t-49.5 -191h285v2 q8 35 129 503q2 9 4.5 17t10.5 24t22.5 25.5t34.5 9.5q25 0 44 -18t19 -45q0 -14 -21 -98.5t-58.5 -228.5t-49.5 -191h248q36 0 43 -2q23 -3 39 -22t16 -42q0 -25 -17.5 -44.5t-61.5 -20.5h-300l-2 -2l-84 -330h330q71 0 103 -13t32 -55q0 -65 -88 -65h-413 q-2 -14 -127 -504l-3 -12q-4 -11 -8 -20t-12 -21t-20.5 -18.5t-28.5 -6.5q-26 0 -46 19t-20 47q0 13 11.5 57.5t46 176.5t71.5 282h-284q-13 -59 -127 -504q0 -1 -2.5 -9t-5 -15.5t-8.5 -18t-13.5 -18t-19 -12.5t-25.5 -5q-24 0 -43.5 19t-19.5 47q0 9 4 29t15 62t24.5 92 t37.5 143t48 190h-248q-29 0 -41 2q-25 4 -40 22t-15 43zM623 375h286l84 332h-284v-2z" />
<glyph unicode="$" d="M88 154q0 2 0.5 5t1.5 12.5t2 18.5t3 21.5t4.5 23.5t6 22t7 18.5t8.5 12.5t10 5q9 0 32.5 -16.5t53 -38t85 -44t118.5 -32.5v465q-142 34 -226.5 144t-84.5 267q0 32 3.5 62.5t13 76t31 84.5t54 76.5t86.5 64t123 36.5v12q0 27 7.5 45t19 26t21 10.5t19.5 2.5 q66 0 66 -94q94 -13 184 -58t90 -86q-8 -139 -39 -139q-13 0 -38.5 20t-76 46.5t-120.5 38.5v-410q77 -18 138 -63t98 -105t56 -129t19 -141q0 -369 -311 -430q0 -97 -66 -97q-67 0 -67 97q-113 13 -222.5 70.5t-109.5 99.5zM311 1075q0 -75 34 -121.5t75 -64.5v364 q-109 -39 -109 -178zM553 170q106 47 106 205q0 150 -106 213v-418z" />
<glyph unicode="%" horiz-adv-x="1800" d="M109 1124q0 192 77 297q41 55 104 85t136 30q64 0 115 -20.5t83 -50.5t55 -74.5t33.5 -80t17 -81t7 -65t0.5 -42.5q0 -22 -0.5 -41.5t-7 -64.5t-17 -80.5t-33.5 -80t-55 -74t-83 -50t-115 -20.5q-60 0 -108.5 16.5t-81 43t-56.5 64t-37.5 74t-21.5 79.5t-10 73.5t-2 62.5 zM315 1122q0 -31 0.5 -49t2.5 -51.5t6 -54t12 -47t19.5 -41.5t29.5 -26t41 -11q13 0 25 4t30 20.5t30.5 44.5t22 83.5t9.5 129.5q0 71 -8.5 124t-21 82t-29.5 47t-30.5 23t-27.5 5q-23 0 -41 -11t-29.5 -26t-19.5 -41.5t-12 -47.5t-6 -55t-2.5 -52t-0.5 -50zM354 -43 q0 21 21 53l936 1481l8 12t9.5 11t13 11.5t15.5 7t21 3.5q30 0 51 -22t21 -50q0 -23 -20 -53l-936 -1481q-27 -45 -68 -45q-29 0 -50.5 21.5t-21.5 50.5zM1061 299q0 191 78 297q41 55 103.5 85t135.5 30q64 0 115 -20.5t83 -50.5t55 -74t34 -80.5t17 -81.5t7 -65t1 -42 t-1 -41.5t-7 -64.5t-17 -81t-34 -80t-55 -74t-83 -50.5t-115 -20.5q-60 0 -108.5 16.5t-81 43t-56.5 64.5t-37.5 74.5t-21.5 79t-10 73.5t-2 63zM1268 254.5q0 -14.5 1.5 -45t4.5 -48t7.5 -43.5t13 -41.5t19.5 -31t27.5 -22.5t36.5 -7q13 0 25 4t30 20.5t30.5 45t22 84 t9.5 129.5q0 71 -8.5 124t-21 82t-29.5 47t-30.5 23t-27.5 5q-20 0 -36.5 -7t-27.5 -23t-19.5 -31t-13 -41t-7.5 -44t-4.5 -48.5t-1.5 -45v-43.5v-42.5z" />
<glyph unicode="&#x26;" horiz-adv-x="1466" d="M82 295q0 82 34 145t72 97l177 153q-84 199 -84 400q0 165 97 267.5t228 102.5q128 0 209.5 -98t81.5 -221q0 -94 -76.5 -194.5t-236.5 -241.5q79 -157 258 -379q185 190 272 538q8 35 13.5 44.5t19.5 9.5q3 0 30.5 -7.5t57.5 -15.5t37 -10q22 -11 22 -27q0 -8 -12 -54 t-44 -135t-73 -171q-75 -154 -198 -293q86 -68 174 -68q80 0 170 29q16 8 24 8q16 0 19.5 -11.5t3.5 -41.5v-70q0 -37 -11 -46.5t-71 -24.5q-71 -19 -141 -19q-171 0 -320 115q-189 -115 -379 -115q-151 0 -252.5 99t-101.5 235zM309 344q0 -13 1 -29t8.5 -50.5t20 -60.5 t39.5 -46.5t64 -20.5q122 0 240 64q-51 56 -127.5 161t-132.5 203q-28 -23 -44 -39t-34.5 -42t-26.5 -60.5t-8 -79.5zM477 1128q0 -125 51 -294q87 84 130.5 153.5t43.5 153.5q0 25 -4.5 54t-14 61t-30 52.5t-47.5 20.5q-54 0 -91.5 -56t-37.5 -145z" />
<glyph unicode="'" horiz-adv-x="540" d="M158 1386q0 35 39 35h141q23 0 34 -7t11 -28q0 -12 -2 -18l-43 -514q-3 -41 -14 -49t-62 -8q-40 0 -49 9.5t-12 49.5q-43 494 -43 530z" />
<glyph unicode="(" horiz-adv-x="755" d="M147 541q0 523 240 843q30 41 63 77t53.5 54t26.5 19q2 2 35 2h29q20 0 28 -1t14.5 -6t6.5 -16q0 -9 -20 -34q-122 -160 -185 -381.5t-63 -556.5q0 -166 17 -308.5t41.5 -236.5t62.5 -178t67 -129t68 -95q12 -17 12 -26q0 -16 -10 -19.5t-39 -3.5h-29q-37 0 -41 4 q-17 13 -31.5 26t-56 59.5t-74.5 96.5t-75.5 135t-71 178.5t-48.5 224t-20 272.5z" />
<glyph unicode=")" horiz-adv-x="755" d="M111 -432q0 10 20 35q79 104 131 223t84.5 301t32.5 414q0 167 -17.5 309.5t-41.5 235.5t-62.5 177.5t-67 128.5t-67.5 95q-12 16 -12 26q0 16 11.5 19.5t39.5 3.5h26q37 0 41 -4q17 -14 31.5 -26.5t56 -59t74.5 -96t75.5 -135t71 -178.5t48.5 -223.5t20 -272.5 q0 -525 -239 -844q-30 -40 -63.5 -76.5t-54 -54.5t-26.5 -19q-2 -2 -35 -2h-26q-19 0 -27.5 1t-16 6t-7.5 16z" />
<glyph unicode="*" d="M117 864q0 22 11 39t18.5 21.5t21.5 11.5l262 117l-262 116q-14 7 -21.5 11.5t-18.5 21.5t-11 39q0 36 27.5 65t62.5 29q29 0 57 -28l189 -189l-47 295q-7 41 -7 47q0 36 27.5 56t58.5 20t58.5 -20t27.5 -56q0 -12 -6 -47l-47 -295l191 189q11 11 16.5 15.5t15.5 8.5 t23 4q36 0 63 -29t27 -65q0 -22 -11 -39t-18.5 -21.5t-21.5 -11.5l-262 -116l262 -117q14 -7 21.5 -11.5t18.5 -21.5t11 -39q0 -36 -27.5 -65t-62.5 -29q-28 0 -57 29l-189 188q53 -318 53 -342q0 -36 -27.5 -56t-58.5 -20t-58.5 20t-27.5 56q0 6 7 47l47 295l-191 -188 q-12 -12 -17 -16.5t-15 -8.5t-23 -4q-36 0 -63 29t-27 65z" />
<glyph unicode="+" horiz-adv-x="1513" d="M109 541q0 65 84 65h495v490q0 90 66 92q65 -2 65 -90v-492h492q88 0 90 -65q0 -66 -86 -66h-496v-491q0 -90 -65 -90q-66 0 -66 90v491h-489q-47 0 -68 17q-22 17 -22 49z" />
<glyph unicode="," horiz-adv-x="538" d="M162 53v111q0 39 7 46t44 7h115q37 0 44 -7t7 -46v-111q0 -24 -2.5 -34t-14.5 -37q-72 -150 -86 -177q-10 -23 -18.5 -27.5t-40.5 -4.5q-20 0 -26 0.5t-15 2.5t-11.5 7t-2.5 14q0 11 57 203q-41 0 -49 7.5t-8 45.5z" />
<glyph unicode="-" horiz-adv-x="649" d="M23 483q0 66 83 66h349q34 0 54 -14t24 -27t4 -25q0 -25 -18 -45t-66 -20h-347q-83 0 -83 65z" />
<glyph unicode="." horiz-adv-x="540" d="M160 47v88q0 53 6 67.5t35 14.5h131q26 0 35.5 -8.5t9.5 -34.5v-106q0 -40 -6.5 -53.5t-34.5 -14.5h-131q-29 0 -37 10.5t-8 36.5z" />
<glyph unicode="/" d="M109 -389q0 16 14 63l594 1770q18 56 37 74q18 16 43 16q26 0 44.5 -18t18.5 -46q0 -7 -12 -55l-604 -1802q-11 -31 -27 -48.5t-45 -17.5q-20 0 -41.5 16t-21.5 48z" />
<glyph unicode="0" d="M76 700v2q0 251 28 387q79 370 381 371q85 0 152 -30.5t109 -73.5t72 -116.5t44.5 -131.5t22.5 -147.5t9 -135.5t1 -123t-1 -122.5t-9 -133t-22.5 -144t-44.5 -127.5t-72.5 -113t-109 -71.5t-151.5 -29.5t-151.5 29.5t-108.5 71t-72.5 112.5t-44.5 127t-22 144t-9 133 t-1 122zM303 731q0 -82 0.5 -123t2.5 -113.5t7 -111t13 -93.5t21.5 -84t32 -59t45.5 -42.5t60 -12.5q27 0 49.5 8t39.5 27.5t30.5 39.5t23.5 56t17 64.5t11 77.5t6.5 82.5t4 92t1.5 93v98.5q0 77 -0.5 117.5t-2.5 107.5t-7 104t-13 87t-22 77t-32.5 54.5t-45.5 39t-60 11.5 q-139 0 -170 -233q-12 -109 -12 -365z" />
<glyph unicode="1" d="M137 1253q0 23 17 44t55 22q180 8 262 106q16 20 29 27.5t43 7.5q28 0 45 -8t23.5 -24t8 -27t1.5 -31v-1239h124q16 0 26.5 -1t28 -6.5t27 -20t9.5 -37.5q0 -66 -91 -66h-491q-92 0 -92 66q0 23 9.5 37.5t27.5 20t28 6.5t27 1h137v1088q-91 -31 -170 -31q-84 0 -84 65z " />
<glyph unicode="2" d="M82 1128q0 7 10 40t38.5 89t66.5 97q100 106 262 106q97 0 176.5 -37.5t131 -101t79.5 -145t28 -172.5q0 -50 -7.5 -92.5t-30.5 -90t-44.5 -82.5t-72.5 -95.5t-89 -102t-118 -127.5l-199 -226q14 2 41 2h250q20 0 63 1.5t64 1.5q93 0 118 -13.5t25 -77.5v-12 q0 -53 -18 -71.5t-72 -18.5h-596q-55 0 -73.5 19t-18.5 73q0 28 3 37.5t16 24.5l350 440q174 220 174 407q0 15 -1.5 33t-7 54t-20 67.5t-36 62t-59 48.5t-85.5 18q-42 0 -76 -14.5t-56.5 -37t-41 -57.5t-29 -66.5t-20.5 -72.5q-7 -24 -11.5 -31.5t-17.5 -7.5q-12 0 -31 25 q-65 95 -65 106z" />
<glyph unicode="3" d="M82 182q0 6 12 78q5 34 10 44.5t19 10.5q8 0 13 -4.5t18 -23.5q36 -51 83 -86.5t92 -50t75 -20t55 -5.5q37 0 66 12t47.5 29t32 45t20 51t10 56t4 51t0.5 45q0 150 -44.5 219t-150.5 69h-69q-37 0 -44 7.5t-7 46.5v24q0 29 2 36.5t10 12.5q11 5 57 9q27 2 40 4t33 7 t32 13t27 23t28 37q47 75 47 200q0 30 -1.5 51t-9.5 48t-22 44.5t-41 29.5t-65 12q-22 0 -46.5 -5t-63.5 -20.5t-76 -54t-62 -94.5q-11 -25 -25 -25q-15 0 -46 52t-31 61t12 34t41 60t68 67.5t102 55t135 22.5q175 0 271 -91.5t96 -246.5q0 -121 -60 -210.5t-145 -141.5 q258 -78 258 -360q0 -114 -32.5 -201t-90.5 -140.5t-133.5 -80.5t-165.5 -27q-72 0 -137 20t-108.5 49.5t-76.5 61.5t-48 56t-15 34z" />
<glyph unicode="4" d="M53 430v37q0 26 2 36t13 32l403 837q16 34 31.5 41.5t54.5 7.5h107q54 0 72 -18.5t18 -71.5v-825h73q17 0 26.5 -0.5t24 -5t21.5 -12.5t13 -25t6 -41q0 -29 -7.5 -47t-23.5 -25t-27.5 -8.5t-32.5 -1.5h-73v-250q0 -53 -18 -71.5t-72 -18.5h-35q-56 0 -73 19.5t-17 70.5 v250h-396q-56 0 -73 19.5t-17 70.5zM233 506h318v731q0 -29 -64 -178q-42 -102 -96 -219t-103 -219.5t-55 -114.5z" />
<glyph unicode="5" d="M68 197q0 3 13.5 34t32.5 63t31 32q18 0 23 -19q21 -51 55 -88.5t63 -54.5t64 -27t49 -11t27 -1q32 0 59 7.5t46.5 18.5t34.5 30.5t25 37t16.5 45t10 46.5t5.5 51t2 48.5v47.5q0 38 -0.5 59.5t-2.5 61t-6.5 64t-14 55t-22.5 47.5t-34 29.5t-47 12.5q-39 0 -72 -13 t-56.5 -37t-33.5 -37.5t-23 -34.5q-14 -26 -30.5 -33.5t-49.5 -7.5q-31 0 -50 7t-26.5 22.5t-9.5 28.5t-2 36v610q0 55 18.5 74.5t74.5 19.5h481q52 0 71 -17.5t19 -70.5q0 -54 -19 -71t-71 -17h-359v-358q67 31 142 31q91 0 165.5 -37t116.5 -95q90 -125 90 -335 q0 -237 -116 -365q-50 -54 -133 -89.5t-193 -35.5q-71 0 -134.5 22.5t-104 54t-70 66.5t-42.5 59.5t-13 33.5z" />
<glyph unicode="6" d="M82 694q0 68 2.5 115t11.5 129t35 158.5t66 142.5q71 113 177 167t218 54q66 0 115 -20q46 -18 54.5 -29.5t8.5 -46.5v-49v-23t-2 -15t-7 -12t-13 -3t-33 14q-51 31 -117 31q-42 0 -78 -12t-62 -31t-47 -49.5t-35 -60t-25 -71t-16.5 -72.5t-9.5 -75.5t-5.5 -70 t-2.5 -64.5q68 170 228 170q178 0 274 -162q32 -54 48 -116.5t19 -105t3 -110.5q0 -128 -19.5 -211.5t-85.5 -169.5q-103 -135 -292 -135q-66 0 -122 20t-95.5 51t-71 80t-51.5 94.5t-34 108.5t-21 108t-10.5 107t-4 90.5t-0.5 73.5zM322 514q0 -389 167 -389q34 0 60.5 12 t43.5 28t29 47.5t18 56t9 68t3.5 68.5t0.5 72v51.5t-1 50t-3 51.5t-5.5 47t-9.5 45t-14 38t-19.5 34t-26 24t-34 17t-42.5 5q-83 0 -129.5 -80.5t-46.5 -245.5z" />
<glyph unicode="7" d="M82 1319v14q0 23 1.5 38t10.5 25.5t16.5 15.5t30.5 7.5t40.5 3t58.5 0.5h73q412 0 478 -2q31 -1 44 -2.5t28.5 -9.5t20.5 -26t5 -50q0 -29 -2.5 -38.5t-16.5 -28.5q-192 -292 -280.5 -591t-91.5 -630q0 -23 -9 -37.5t-26.5 -20t-28 -6.5t-26.5 -1h-60q-32 0 -51 6t-27 21 t-10 28t-2 39q0 311 107.5 607.5t304.5 551.5q-14 -2 -47 -2h-265q-20 0 -63.5 -1t-65.5 -1q-38 0 -54 0.5t-37.5 3t-28.5 7.5t-15.5 15.5t-10 25.5t-1.5 38z" />
<glyph unicode="8" d="M82 408q0 283 237 360q-210 68 -210 305q0 180 96 283.5t280 103.5q183 0 280 -102.5t97 -284.5q0 -46 -9 -87t-30.5 -84.5t-65.5 -78.5t-106 -55q238 -77 238 -360q0 -215 -106.5 -331t-297.5 -116q-187 0 -295 114.5t-108 332.5zM315 412q0 -35 0.5 -54.5t3.5 -54.5 t9 -55.5t18.5 -47t30.5 -40.5t45.5 -24.5t62.5 -10.5t62.5 10.5t45.5 24.5t30.5 40.5t18.5 47t9 55.5t3.5 54.5t0.5 54.5q0 34 -0.5 53t-3.5 54t-9 56t-18.5 48t-30.5 42t-45.5 26t-62.5 11t-62.5 -11t-45.5 -26t-30.5 -42t-18.5 -48t-9 -56t-3.5 -54t-0.5 -53zM319 1071 q0 -28 0.5 -44t3.5 -44.5t9 -45.5t18 -39t29.5 -34.5t44.5 -21t61 -8.5t61 8.5t44.5 21t29.5 34.5t18 39t9 45.5t3.5 44.5t0.5 44q0 29 -0.5 45t-3.5 45t-9 45.5t-18 38.5t-29.5 33.5t-44.5 20t-61 8.5t-61 -8.5t-44.5 -20t-29.5 -33t-18 -38t-9 -45.5t-3.5 -45t-0.5 -46z " />
<glyph unicode="9" d="M82 946q0 59 2 95t11 88t31 99t58 93q58 73 132 106t173 33q64 0 118.5 -20t93 -50.5t69.5 -79t50 -93.5t33 -107.5t21 -107.5t10.5 -106.5t4 -91t0.5 -73.5q0 -78 -3 -133t-14 -137.5t-38 -159t-70 -143.5q-58 -88 -153 -142.5t-208 -54.5q-50 0 -95 11.5t-74 28 t-50.5 34.5t-31 31t-9.5 18q0 8 32.5 66.5t47.5 58.5q13 0 25 -12q58 -72 153 -72q68 0 125.5 45t85.5 133q15 45 23 95t10.5 85.5t7.5 137.5q-40 -91 -95.5 -130.5t-131.5 -39.5q-106 0 -170 46t-109 126q-31 52 -46 116.5t-17 101.5t-2 105zM317 887.5q0 -19.5 1.5 -55.5 t4 -56.5t8 -50.5t13 -47.5t19.5 -38t27.5 -31.5t36.5 -18.5t46 -7.5q36 0 65.5 16.5t47.5 40t31.5 58.5t19.5 63.5t9.5 63.5t4 49t0.5 30q0 404 -159 404q-36 0 -64.5 -12.5t-46.5 -30t-31 -50t-19 -58t-9.5 -69.5t-4 -70t-0.5 -73v-56.5z" />
<glyph unicode=":" horiz-adv-x="538" d="M162 53v111q0 39 7 46t44 7h115q37 0 44 -7t7 -46v-111q0 -39 -7 -46t-44 -7h-113q-38 0 -45.5 7.5t-7.5 45.5zM162 803v110q0 38 7.5 46t45.5 8h113q37 0 44 -7.5t7 -46.5v-110q0 -39 -7 -46t-44 -7h-115q-37 0 -44 7t-7 46z" />
<glyph unicode=";" horiz-adv-x="540" d="M160 797v88q0 53 6 67.5t35 14.5h131q26 0 35.5 -8.5t9.5 -34.5v-107q0 -40 -6.5 -53t-34.5 -14h-131q-29 0 -37 10.5t-8 36.5zM162 53v111q0 39 7 46t44 7h115q37 0 44 -7t7 -46v-111q0 -24 -2.5 -34t-14.5 -37q-72 -150 -86 -177q-10 -23 -18.5 -27.5t-40.5 -4.5 q-20 0 -26 0.5t-15 2.5t-11.5 7t-2.5 14q0 11 57 203q-41 0 -49 7.5t-8 45.5z" />
<glyph unicode="&#x3c;" horiz-adv-x="1513" d="M164 541q0 20 12.5 36.5t22.5 23t28 15.5l1008 613q27 16 49 16q26 0 45 -18.5t19 -44.5q0 -10 -3 -19t-8.5 -16.5t-10.5 -13t-12.5 -11t-12 -8.5t-11.5 -6l-6 -4l-930 -563l148 -88l782 -476q2 -1 9 -5.5t9 -5.5t8.5 -5.5t9 -6.5t7.5 -6.5t7 -8t5.5 -8.5t5 -9.5t2.5 -10 t1 -11.5q0 -26 -19 -46t-45 -20q-17 0 -49 19l-1006 610q-18 9 -28.5 16t-23.5 24t-13 38z" />
<glyph unicode="=" horiz-adv-x="1513" d="M109 309q0 26 18.5 46t67.5 20h1124q34 0 54 -15t24 -28t4 -25q0 -25 -19.5 -45t-68.5 -20q-4 0 -13.5 1t-13.5 1h-1091q-86 0 -86 65zM109 772q0 26 18.5 46t67.5 20h1124q34 0 54 -14t24 -27t4 -25q0 -65 -88 -65h-1118q-86 0 -86 65z" />
<glyph unicode="&#x3e;" horiz-adv-x="1513" d="M164 -100q0 10 3 19t8 16t10.5 13t13 11t11.5 8t10 7l7 3l930 564l-147 88l-783 475q-19 10 -30.5 18.5t-22 24.5t-10.5 35q0 26 18.5 44.5t44.5 18.5q22 0 49 -16l1006 -611q2 -1 11 -6.5t12.5 -8t11.5 -8t12.5 -10.5t9.5 -12t7 -15t2 -17q0 -29 -22.5 -47.5 t-140.5 -90.5q-65 -40 -106 -65l-803 -485q-32 -19 -49 -19q-26 0 -44.5 19.5t-18.5 46.5z" />
<glyph unicode="?" horiz-adv-x="917" d="M111 1315q0 7 15 22t44.5 33t68 34t92 27t109.5 11q369 0 369 -312q0 -153 -94 -233q-195 -163 -195 -397v-70q0 -41 -7 -48t-46 -7h-70q-37 0 -44 7t-7 42v88q0 100 43 221.5t143 243.5q20 27 27.5 39.5t15 44.5t7.5 80q0 91 -28 130.5t-120 39.5q-140 0 -235 -109 q-14 -20 -27 -20q-11 0 -16.5 8.5t-22.5 50.5q-22 69 -22 74zM324 92v35q0 53 18 71.5t72 18.5h37q56 0 73 -19.5t17 -70.5v-37q0 -53 -18 -71.5t-72 -18.5h-35q-55 0 -73.5 19t-18.5 73z" />
<glyph unicode="@" horiz-adv-x="1296" d="M109 711q0 325 145 512q89 114 220 166.5t276 52.5q68 0 124.5 -14.5t98.5 -38t75.5 -60.5t55.5 -75.5t38 -91t25 -98t14 -105.5t6 -104t1 -103q0 -77 -2.5 -120.5t-21 -112t-54.5 -124.5q-41 -65 -118.5 -107t-180.5 -42q-26 0 -52.5 3.5t-71 15.5t-89 43.5t-78.5 78.5 q-84 117 -84 324q0 26 1 48t8 73t20 91.5t41.5 90t67 83t100.5 56.5t139 23q66 0 123 -19q-19 69 -68.5 111.5t-117.5 42.5q-111 0 -201.5 -51t-149.5 -150q-84 -139 -84 -399q0 -26 0.5 -47t4.5 -68t11.5 -85t23 -90t37 -92.5t55.5 -83t76.5 -70.5t103 -46t131.5 -18 q160 0 291 90h88q20 0 28 -1t14.5 -6t6.5 -16q0 -8 -18.5 -29.5t-57 -50t-88.5 -55t-122 -45t-148 -18.5q-159 0 -294 60t-216 177q-133 187 -133 494zM643 711q0 -61 7.5 -115t25 -106t52.5 -82.5t85 -30.5q10 0 19 1t27.5 8t33 19t32 37t29 59t19.5 88.5t8 121.5 q0 61 -7.5 115t-25 105.5t-52.5 82t-85 30.5q-16 0 -30 -2.5t-41.5 -20.5t-47 -50.5t-34.5 -99.5t-15 -160z" />
<glyph unicode="A" horiz-adv-x="1302" d="M72 51q0 1 8 33l395 1262q9 27 22.5 43.5t32.5 22.5t30.5 7.5t31.5 1.5h117q21 0 33 -1.5t30 -8t31 -23.5t22 -45l396 -1263q8 -23 8 -29q0 -18 -7.5 -29.5t-21.5 -15.5t-23.5 -5t-25.5 -1h-70q-34 0 -53.5 4.5t-34.5 23t-22.5 38t-22.5 65.5l-67 219h-496l-86 -268 q-7 -21 -12 -32.5t-17.5 -25t-34 -19t-53.5 -5.5h-32q-16 0 -25.5 1t-23.5 5t-21.5 15.5t-7.5 29.5zM432 504h402l-115 379q-74 246 -86 321h-2q-9 -69 -80 -305z" />
<glyph unicode="B" horiz-adv-x="1298" d="M166 92v1237q0 55 19 73.5t73 18.5h410q125 0 218.5 -30t146.5 -82.5t78.5 -115.5t25.5 -136q0 -121 -75.5 -202.5t-205.5 -111.5q92 -15 159.5 -51t104 -85t53.5 -101.5t17 -112.5t-14 -114t-49 -106t-87.5 -89.5t-134.5 -60.5t-186 -23h-461q-55 0 -73.5 19t-18.5 73z M403 154h254q144 0 221.5 62t77.5 181q0 57 -16 102.5t-39 73.5t-58 48.5t-63.5 30.5t-65 15.5t-53 6t-36.5 0.5h-222v-520zM403 805h203q157 0 230 70t73 178q0 44 -15 79.5t-36.5 57.5t-54 38t-58.5 23.5t-59.5 11.5t-48 4.5t-31.5 0.5h-203v-463z" />
<glyph unicode="C" horiz-adv-x="1241" d="M109 711q0 340 149 530q88 113 218 166t284 53q161 0 311 -57q35 -14 43 -20.5t8 -20.5q0 -35 -26 -152q-6 -28 -25 -28q-11 0 -29 14q-60 41 -125 64.5t-155 23.5q-83 0 -149 -27.5t-107.5 -67.5t-71.5 -100t-44 -109t-22 -112.5t-9 -92t-1 -64.5q0 -51 3.5 -97.5 t14 -106t28 -109.5t49 -100t73.5 -84t104 -55.5t138 -21.5q104 0 168.5 21t138.5 75q26 19 35 19q17 0 23 -25q12 -84 12 -123q0 -12 -6.5 -19t-38.5 -30q-85 -55 -156 -74.5t-180 -19.5q-304 0 -483 191q-172 187 -172 559z" />
<glyph unicode="D" horiz-adv-x="1406" d="M166 92v1237q0 55 19 73.5t73 18.5h447q141 0 263 -55t197 -164q131 -188 131 -502q0 -345 -161 -526q-79 -91 -193 -132.5t-235 -41.5h-449q-55 0 -73.5 19t-18.5 73zM410 154h229q85 0 153 23t110.5 55.5t73 86t45 96.5t22.5 106.5t9 95.5t1 83q0 52 -1 85t-9 99 t-22.5 110.5t-45.5 101t-73.5 90.5t-110.5 58t-154 24h-227v-1114z" />
<glyph unicode="E" horiz-adv-x="1159" d="M166 92v1231q0 55 19 73.5t73 18.5h703q58 0 74 -21t16 -71q0 -34 -6 -53t-22.5 -27.5t-31 -10t-47.5 -1.5q-48 0 -217 3t-217 3h-94v-420h491q17 0 26 -0.5t23.5 -5t21.5 -12.5t13 -25t6 -41q0 -29 -7.5 -47t-23 -25t-27 -8.5t-32.5 -1.5h-491v-463q46 5 270 5 q48 0 144.5 2t144.5 2q29 0 43.5 -1.5t30.5 -10t22 -27.5t6 -52v-16q0 -53 -18 -71.5t-72 -18.5h-729q-55 0 -73.5 19t-18.5 73z" />
<glyph unicode="F" horiz-adv-x="1105" d="M166 92v1231q0 55 19 73.5t73 18.5h674q58 0 74 -21t16 -71q0 -34 -5.5 -53t-22 -27.5t-30.5 -10t-46 -1.5q-47 0 -210 3t-210 3h-82v-446h436q17 0 26 -0.5t23.5 -5t21.5 -12.5t13 -25t6 -41q0 -29 -7.5 -47t-23 -25t-27 -8.5t-32.5 -1.5h-436v-535q0 -53 -18 -71.5 t-72 -18.5h-68q-55 0 -73.5 19t-18.5 73z" />
<glyph unicode="G" horiz-adv-x="1296" d="M109 711q0 360 170 557q79 91 202.5 141.5t276.5 50.5q191 0 338 -80q38 -22 45.5 -28.5t7.5 -18.5q0 -29 -27 -151q-6 -29 -24 -29q-10 0 -27 12q-26 23 -46.5 38t-60 36.5t-90.5 33t-112 11.5q-65 0 -120 -17t-93.5 -43t-70 -66.5t-51 -78.5t-33.5 -87.5t-21 -86 t-10.5 -82t-4 -65.5t-0.5 -47q0 -26 0.5 -46.5t4 -66t10.5 -81.5t21 -86t33.5 -88t51 -78.5t70 -67t93.5 -43.5t120 -17q90 0 176 23v366h-127q-40 0 -47.5 8.5t-7.5 49.5v51q0 41 8 49t49 8h297q40 0 47.5 -8t7.5 -49v-516q0 -35 -6.5 -45t-40.5 -27q-170 -86 -362 -86 q-138 0 -269 48.5t-225 164.5q-153 189 -153 537z" />
<glyph unicode="H" horiz-adv-x="1386" d="M166 92v1237q0 55 19 73.5t73 18.5h68q56 0 73 -19.5t17 -70.5v-510h555v510q0 53 18 71.5t72 18.5h69q56 0 73.5 -20t17.5 -70v-1241q0 -53 -18.5 -71.5t-72.5 -18.5h-69q-56 0 -73 19.5t-17 70.5v565h-555v-565q0 -53 -18 -71.5t-72 -18.5h-68q-55 0 -73.5 19t-18.5 73 z" />
<glyph unicode="I" horiz-adv-x="579" d="M164 92v1237q0 55 19 73.5t73 18.5h68q56 0 73 -19.5t17 -70.5v-1241q0 -53 -18 -71.5t-72 -18.5h-68q-55 0 -73.5 19t-18.5 73z" />
<glyph unicode="J" horiz-adv-x="921" d="M82 74q0 7 10.5 66.5t13.5 72.5q6 25 25 25q11 0 27 -21q46 -54 101 -74t99 -20q36 0 64 11t43.5 31t25.5 38.5t13.5 44t4.5 37.5t1 28v1018q0 53 18 71.5t72 18.5h64q56 0 73 -19.5t17 -70.5v-1030q0 -159 -92 -249.5t-246 -90.5q-146 0 -289 70q-29 15 -37 22t-8 21z " />
<glyph unicode="K" horiz-adv-x="1355" d="M166 92v1237q0 55 19 73.5t73 18.5h45q56 0 73 -19.5t17 -70.5v-592l586 639q27 29 48 36t58 7h76q15 0 23.5 -0.5t20.5 -4t18 -12t6 -22.5q0 -13 -25 -41l-465 -507l500 -779q0 -20 -4 -31.5t-15.5 -16.5t-20.5 -6t-30 -1h-79q-42 0 -58 7.5t-37 39.5l-403 627 l-199 -217v-367q0 -53 -18 -71.5t-72 -18.5h-45q-55 0 -73.5 19t-18.5 73z" />
<glyph unicode="L" horiz-adv-x="1050" d="M166 92v1237q0 55 19 73.5t73 18.5h68q56 0 73 -19.5t17 -70.5v-1153q52 0 233.5 4t233.5 4q31 0 49.5 -7t26 -23.5t9 -28t1.5 -35.5q0 -51 -16.5 -71.5t-73.5 -20.5h-621q-55 0 -73.5 19t-18.5 73z" />
<glyph unicode="M" horiz-adv-x="1712" d="M166 92v1237q0 55 19 73.5t73 18.5h127q21 0 33.5 -1.5t31.5 -8t32.5 -24.5t23.5 -46l184 -538l90 -279q64 -204 72 -266h2q6 41 68 250l82 252l198 575q8 23 13.5 35t18 26t34.5 19.5t55 5.5h131q56 0 73 -19.5t17 -70.5v-1241q0 -53 -18 -71.5t-72 -18.5h-33 q-56 0 -73 19.5t-17 70.5v1106q0 -24 -70.5 -248t-82.5 -254l-197 -569q-18 -54 -43 -70t-86 -16q-26 0 -39.5 1.5t-33 8.5t-33 24t-23.5 46l-184 540q-36 106 -86 271q-66 218 -72 266h-2v-1106q0 -53 -18 -71.5t-72 -18.5h-31q-55 0 -73.5 19t-18.5 73z" />
<glyph unicode="N" horiz-adv-x="1386" d="M166 92v1237q0 55 19 73.5t73 18.5h148q55 0 81.5 -16t47.5 -66l387 -905q63 -148 84 -217h2v1114q0 53 18 71.5t72 18.5h32q56 0 73.5 -20t17.5 -70v-1241q0 -53 -18.5 -71.5t-72.5 -18.5h-149q-55 0 -81.5 16t-47.5 66l-387 905q-63 148 -84 217h-2v-1114 q0 -53 -18 -71.5t-72 -18.5h-31q-55 0 -73.5 19t-18.5 73z" />
<glyph unicode="O" horiz-adv-x="1427" d="M109 700q0 188 35.5 314t99.5 221q74 108 197.5 166.5t271.5 58.5q42 0 84 -4.5t99 -21t107 -43t103.5 -75t93.5 -112.5q117 -186 117 -504q0 -361 -162 -553q-84 -99 -201.5 -142.5t-240.5 -43.5q-137 0 -251.5 48t-185.5 130q-167 194 -167 561zM358 733 q0 -134 13 -230t49 -181q27 -64 66 -108.5t81 -66t77 -30t69 -8.5q26 0 52.5 4.5t61 18t65 35.5t61.5 61.5t53 90.5q27 63 41 141.5t17 135t3 137.5q0 79 -2.5 131.5t-19.5 133t-48 141.5q-29 56 -69 94t-81.5 55t-72.5 23t-61 6q-77 0 -152.5 -38.5t-126.5 -129.5 q-27 -47 -44 -103.5t-23 -120t-7.5 -100.5t-1.5 -92z" />
<glyph unicode="P" horiz-adv-x="1245" d="M166 92v1237q0 55 19 73.5t73 18.5h422q223 0 339 -115.5t116 -314.5q0 -95 -27 -170t-70 -121.5t-101.5 -76.5t-117 -42t-121.5 -12h-282v-479q0 -53 -18 -71.5t-72 -18.5h-68q-55 0 -73.5 19t-18.5 73zM410 711h208q76 0 130 17t83 42t45.5 65.5t20.5 73.5t4 80 q0 48 -4.5 82.5t-21 74t-46 64.5t-83 41.5t-128.5 16.5h-208v-557z" />
<glyph unicode="Q" horiz-adv-x="1427" d="M109 700q0 188 35.5 314t99.5 221q74 108 197.5 166.5t271.5 58.5q42 0 84 -4.5t99 -21t107 -43t103.5 -75t93.5 -112.5q117 -186 117 -504q0 -223 -62 -381q-68 -173 -190 -253l131 -193q29 -45 29 -57q0 -15 -6 -24.5t-18 -13t-20.5 -4.5t-23.5 -1h-123 q-47 0 -60.5 9.5t-49.5 65.5l-74 125q-68 -12 -137 -12q-137 0 -251.5 48t-185.5 130q-167 194 -167 561zM352 702q0 -259 64 -397q27 -59 65 -101t80 -62.5t78.5 -29t73.5 -8.5q49 0 49 9q0 3 -22.5 40.5t-30.5 49.5l-50 80q-34 56 -34 71q0 20 12.5 30t24 11.5t32.5 1.5 h94q33 0 43 -3t23 -21l102 -154q41 47 67 112.5t35.5 142t12 121t2.5 107.5q0 133 -15 235t-57 193q-43 89 -120.5 138t-167.5 49q-84 0 -157 -42.5t-116 -115.5q-55 -95 -71.5 -204.5t-16.5 -252.5z" />
<glyph unicode="R" horiz-adv-x="1255" d="M166 92v1237q0 55 19 73.5t73 18.5h408q239 0 360 -109.5t121 -287.5q0 -277 -293 -360l307 -588q13 -26 13 -31q0 -21 -14 -31.5t-26 -12t-32 -1.5h-86q-43 0 -56.5 8t-31.5 41l-303 596h-215v-555q0 -53 -18.5 -71.5t-72.5 -18.5h-61q-55 0 -73.5 19t-18.5 73zM410 776 h225q71 0 122.5 14t81 35.5t46.5 55.5t22.5 66t5.5 75q0 55 -10 94.5t-37.5 76.5t-85 56t-143.5 19h-227v-492z" />
<glyph unicode="S" horiz-adv-x="1079" d="M86 129q0 31 27 152q6 28 24 28q10 0 33 -20q162 -137 367 -137q52 0 92.5 14.5t63.5 36.5t38 53t20 60t5 61q0 82 -42 138.5t-96 78.5q-7 3 -29.5 9t-55.5 15t-48 13q-71 18 -104 29t-78 39t-90 75q-9 9 -21.5 26t-33.5 52t-35 87.5t-14 109.5q0 85 24 157t73.5 130 t135.5 91t201 33q105 0 176.5 -22t136.5 -60q35 -20 42 -26.5t7 -18.5q0 -34 -26 -151q-6 -29 -25 -29q-11 0 -25 14q-57 53 -122 84t-162 31q-101 0 -161 -49.5t-60 -153.5q0 -16 2.5 -30.5t5 -26t8.5 -24t10 -19.5t11.5 -17.5t10.5 -14t10.5 -12t8.5 -9.5q25 -24 56.5 -36 t130.5 -38q54 -14 80.5 -22.5t67.5 -26t72.5 -42t61.5 -59.5q111 -132 111 -303q0 -96 -26 -174.5t-77.5 -138t-135.5 -92.5t-193 -33q-210 0 -394 113q-43 26 -51 33.5t-8 21.5z" />
<glyph unicode="T" horiz-adv-x="1318" d="M70 1317q0 55 19 73.5t73 18.5h995q58 0 74 -21t16 -71q0 -57 -19 -74.5t-75 -17.5q-41 0 -184.5 3t-184.5 3v-1141q0 -53 -18 -71.5t-72 -18.5h-67q-55 0 -73.5 19t-18.5 73v1139q-20 0 -194 -3t-175 -3q-57 0 -76.5 17t-19.5 75z" />
<glyph unicode="U" horiz-adv-x="1343" d="M166 467v862q0 55 19 73.5t73 18.5h68q56 0 73 -19.5t17 -70.5v-866q0 -350 262 -350q272 0 272 352v864q0 53 18 71.5t72 18.5h47q56 0 73.5 -20t17.5 -70v-864q0 -107 -30.5 -197.5t-90.5 -160.5t-157.5 -109t-223.5 -39q-248 0 -379 140.5t-131 365.5z" />
<glyph unicode="V" horiz-adv-x="1302" d="M47 1370q0 24 14 36t26.5 13.5t35.5 1.5h70q17 0 26 -0.5t25 -4.5t26 -12t21.5 -24t19.5 -39l236 -720q24 -70 63 -211q48 -151 54 -193h2q20 113 143 481l211 641q17 53 43 67.5t76 14.5h39q23 0 35.5 -1.5t26 -13.5t13.5 -36q0 -10 -10 -39l-412 -1251q-12 -37 -35 -56 t-39.5 -21.5t-43.5 -2.5h-125q-22 0 -34 1.5t-30.5 8.5t-31.5 25t-23 47l-412 1249q-10 29 -10 39z" />
<glyph unicode="W" horiz-adv-x="1843" d="M41 1368q0 19 8 30.5t23 16t24.5 5.5t24.5 1h43q16 0 25 -0.5t25 -4.5t25.5 -11.5t19.5 -23.5t15 -38l170 -720q70 -295 78 -400h2q9 101 109 527l139 589q8 38 29 57.5t37.5 22t46.5 2.5h88q16 0 25 -0.5t25 -4.5t25.5 -12t19.5 -24t15 -39l162 -682q77 -330 92 -440h2 q13 115 95 451l159 673q6 28 18.5 45t31.5 23.5t32 8t37 1.5q19 0 30 -1t27 -5.5t23.5 -16t7.5 -30.5q0 -9 -6 -29l-303 -1259q-6 -28 -18 -46t-30 -24.5t-30 -8t-33 -1.5h-98q-18 0 -27.5 0.5t-25.5 5t-25 12.5t-19 25t-16 41l-157 664q-81 336 -97 454h-2 q-9 -71 -45.5 -236t-48.5 -212l-157 -666q-6 -25 -16 -42.5t-19 -26.5t-25 -13.5t-25.5 -5t-27.5 -0.5h-88q-21 0 -33 1.5t-30 8t-30 24.5t-18 46l-303 1259q-6 20 -6 29z" />
<glyph unicode="X" horiz-adv-x="1302" d="M63 43q0 12 17 39l436 670l-405 587q-19 27 -19 41q0 15 6 24t18.5 12t21 4t24.5 1h114q41 0 57 -7t34 -36l270 -413l262 419q8 13 17.5 21t22.5 11.5t22 4t26 0.5h100q15 0 24 -1t21.5 -4.5t18.5 -13t6 -24.5q0 -8 -16 -35l-383 -591l477 -697q0 -20 -4 -31.5 t-14.5 -16.5t-20 -6t-29.5 -1h-114q-41 0 -56.5 7.5t-35.5 37.5l-324 516l-313 -516q-19 -31 -36.5 -38t-56.5 -7h-98q-17 0 -25.5 1t-21 4.5t-18 13t-5.5 24.5z" />
<glyph unicode="Y" horiz-adv-x="1302" d="M39 1378q0 15 6.5 24.5t19.5 13t22 4.5t24 1h84q21 0 33 -1.5t34 -7t41 -22t35 -42.5l231 -387q73 -125 99 -183q13 40 99 188.5t163 273.5t84 134q41 47 125 47h51q16 0 25 -1t22 -4.5t19 -13t6 -24.5q0 -7 -19 -41l-471 -770v-479q0 -55 -20 -71.5t-70 -16.5h-64 q-54 0 -72 18.5t-18 71.5v479l-477 777q-12 18 -12 32z" />
<glyph unicode="Z" horiz-adv-x="1187" d="M109 92q0 30 2.5 40.5t15.5 31.5l664 1091h-74q-78 0 -235.5 -3t-235.5 -3q-27 0 -39.5 0.5t-30 5t-24 13t-12 25.5t-5.5 42q0 30 7 48.5t22 26t28 9.5t35 2h762q49 0 69.5 -17t20.5 -71q0 -27 -2.5 -36.5t-15.5 -30.5l-662 -1088l590 8q60 0 81.5 -15.5t21.5 -78.5 q0 -51 -17 -71.5t-74 -20.5h-802q-56 0 -73 21t-17 71z" />
<glyph unicode="[" horiz-adv-x="600" d="M156 -362v1808q0 50 20 70t68 20h223q49 0 67.5 -20t18.5 -46q0 -65 -88 -65h-86v-1729h80q43 0 55 -6q39 -19 39 -59q0 -26 -18.5 -46t-67.5 -20h-225q-30 0 -48.5 8t-26 24t-9.5 28.5t-2 32.5z" />
<glyph unicode="\" d="M109 1470q0 28 19 46t44 18q22 0 37.5 -12.5t22 -25.5t14.5 -36l573 -1714q41 -110 41 -135q0 -27 -19.5 -45.5t-43.5 -18.5q-15 0 -27.5 7t-19.5 13.5t-14.5 22.5t-9.5 21t-7 22l-596 1778q-14 41 -14 59z" />
<glyph unicode="]" horiz-adv-x="600" d="M43 -389q0 65 88 65h86v1729h-84q-90 0 -90 65q0 26 18.5 46t67.5 20h223q31 0 50 -8t26.5 -23.5t9.5 -28t2 -32.5v-1809q0 -48 -18 -69t-70 -21h-225q-27 0 -45 7t-26 19t-10.5 21t-2.5 19z" />
<glyph unicode="^" horiz-adv-x="1189" d="M295 991q0 9 18 34t90 114q12 14 18.5 23t18.5 24t23 28q3 4 10.5 13t9.5 11.5t7.5 9t7.5 8t7.5 5.5t8.5 4.5t8.5 2t11.5 2t13 0.5h96q20 0 31.5 -5.5t27.5 -25.5l172 -213q17 -26 17 -35q0 -24 -53 -24h-27q-17 0 -25.5 2t-23.5 13.5t-29 26t-53.5 51t-85.5 75.5 q-23 -21 -48 -44t-39.5 -36.5t-30.5 -28t-24.5 -21.5t-17.5 -15t-15 -11t-11.5 -6.5t-11 -4t-10.5 -1t-13 -0.5h-33q-45 0 -45 24z" />
<glyph unicode="_" horiz-adv-x="1513" d="M164 -563q0 27 19.5 49t70.5 22h1006q28 0 47 -8t27 -21.5t11 -23.5t3 -20q0 -27 -20.5 -48.5t-72.5 -21.5h-1003q-27 0 -46 7.5t-27.5 19.5t-11.5 22.5t-3 22.5z" />
<glyph unicode="`" d="M193 1395q0 22 36 22h140q14 0 23 -2t17 -8t11.5 -10t12 -17.5t13.5 -19.5q156 -205 156 -227q0 -23 -41 -23h-37q-18 0 -28 3.5t-40.5 27.5t-80 69.5t-147.5 136.5l-3 3l-6 6l-8.5 8.5t-8 9t-7 11t-2.5 10.5z" />
<glyph unicode="a" horiz-adv-x="925" d="M53 270q0 49 15 91t38.5 72t60 55t70.5 41t79 29t77 19t72.5 11t58 6t41.5 2q15 2 19 7.5t4 31.5v41q0 57 -10.5 97.5t-24 60t-35.5 30t-34.5 12t-32.5 1.5q-150 0 -256 -103q-22 -20 -33 -20q-14 0 -19 11t-8 48q-6 48 -6 74q0 16 8 23t41 24q129 63 281 63 q180 0 268 -85t88 -234v-588q0 -53 -18 -71.5t-72 -18.5h-41q-56 0 -73 19.5t-17 70.5v51q-33 -59 -103.5 -110t-168.5 -51q-116 0 -192.5 87.5t-76.5 202.5zM268 274q0 -66 39 -114.5t99 -48.5q14 0 32.5 3t46.5 16t49.5 34t37.5 60.5t16 92.5v207q-37 -2 -72 -8t-82.5 -23 t-82 -42.5t-59 -71.5t-24.5 -105z" />
<glyph unicode="b" horiz-adv-x="989" d="M115 92v1237q0 55 19 73.5t73 18.5h39q56 0 73 -19.5t17 -70.5v-457q36 42 96.5 77.5t142.5 35.5q70 0 127 -23t93.5 -64t62.5 -90t39.5 -108.5t19 -111t5.5 -105.5q0 -223 -82 -346q-56 -84 -136.5 -121.5t-166.5 -37.5q-122 0 -195 92q-1 -25 -9 -41t-24 -22t-27 -7.5 t-30 -1.5h-45q-55 0 -73.5 19t-18.5 73zM342 193q18 -30 53 -56t86 -26q44 0 78.5 15t56.5 36t38 57t23.5 64.5t11.5 73.5t4.5 68t0.5 62t-0.5 61t-4 66t-10 71.5t-21 63.5t-34 56.5t-51 35.5t-71.5 15q-57 0 -107 -31q-37 -26 -45 -40.5t-8 -45.5v-546z" />
<glyph unicode="c" horiz-adv-x="864" d="M66 485q0 245 110 378.5t320 133.5q92 0 145.5 -16t120.5 -55q23 -13 29 -18.5t6 -18.5q0 -1 -15 -76q-6 -37 -10.5 -47t-17.5 -10q-11 0 -29 18q-56 43 -102.5 61.5t-124.5 18.5q-47 0 -82.5 -16t-57.5 -47t-35.5 -63.5t-19.5 -79.5t-8 -81t-2 -80q0 -33 0.5 -54 t4.5 -63.5t11 -71t21.5 -64.5t35 -58t53 -37.5t73.5 -15.5q143 0 252 110q5 6 6 7q14 18 26 18q15 0 19.5 -10.5t7.5 -46.5q6 -48 6 -74q0 -12 -12.5 -27t-30.5 -28t-35.5 -24t-30.5 -18l-14 -7q-90 -43 -199 -43q-89 0 -172.5 31.5t-140.5 99.5q-108 132 -108 374z" />
<glyph unicode="d" horiz-adv-x="989" d="M66 483q0 232 88 361q32 46 74.5 77.5t85 44.5t70 17t52.5 4q131 0 215 -100v444q0 53 18 71.5t72 18.5h41q56 0 73 -19.5t17 -70.5v-1241q0 -53 -18 -71.5t-72 -18.5h-47q-56 0 -73 19.5t-17 70.5q-5 -8 -19 -22t-40.5 -36t-69.5 -37t-90 -15q-189 0 -289 165 q-71 119 -71 338zM293 481q0 -39 0.5 -61t4 -66.5t10 -72t21 -63.5t34 -56.5t51 -35.5t71.5 -15q98 0 160 96v579l-3 4q-4 4 -8 8.5t-12 11.5t-16 13t-19.5 12t-23 10.5t-27 7.5t-30.5 3q-44 0 -79 -15t-56.5 -36t-37.5 -57.5t-23.5 -65t-11.5 -72.5t-4.5 -67t-0.5 -62z" />
<glyph unicode="e" horiz-adv-x="897" d="M53 489q0 117 27 208.5t69 146.5t99 90.5t112 49t113 13.5q179 0 274 -111.5t95 -322.5q0 -54 -19 -71t-71 -17h-488q0 -22 1 -40t5.5 -58t12.5 -71.5t26 -70t43 -64t64.5 -43t89.5 -17.5q22 0 47.5 4t63.5 15.5t78.5 39.5t74.5 68q15 18 27 18q16 0 20 -16q2 -5 6 -33 q6 -54 6 -74q0 -26 -43 -57t-86 -51q-98 -45 -202 -45q-64 0 -123.5 14t-119.5 50.5t-103.5 92.5t-71 146.5t-27.5 205.5zM266 571h400q-1 36 -3 59t-8.5 62.5t-19 66t-32.5 53.5t-52.5 40.5t-75.5 13.5q-67 0 -114.5 -44.5t-69 -108t-25.5 -142.5z" />
<glyph unicode="f" horiz-adv-x="593" d="M51 901q0 23 9.5 37.5t28.5 20t33 7t38 1.5v157q0 150 87 234t253 84q61 0 114 -10q43 -9 51.5 -18t8.5 -46v-57q0 -20 -1 -28.5t-6 -15.5t-16 -7q-9 0 -26 12q-53 39 -125 39q-36 0 -61 -10t-37 -22.5t-18.5 -34.5t-7.5 -34.5t-1 -33.5v-209h90q90 0 90 -66 q0 -23 -9 -37.5t-26.5 -20t-28 -6.5t-26.5 -1h-84v-746q0 -53 -18 -71.5t-72 -18.5h-39q-55 0 -73.5 19t-18.5 73v744q-26 0 -39 1t-32.5 6.5t-28.5 20t-9 37.5z" />
<glyph unicode="g" horiz-adv-x="989" d="M66 487q0 222 90 351q56 81 137 115t160 34q124 0 198 -119q0 32 0.5 45.5t5 31.5t14 25t26.5 12t44 5h41q56 0 73 -19.5t17 -70.5v-842q0 -70 -12.5 -131.5t-41.5 -118.5t-73.5 -98t-113 -65.5t-154.5 -24.5q-165 0 -309 68q-24 12 -28.5 20.5t-4.5 40.5v47q0 20 1 28.5 t6 16.5t16 8q10 0 26 -14q134 -84 289 -84q172 0 172 252v190h-2q-58 -147 -205 -147q-26 0 -55 4t-71 16t-84.5 40t-73.5 69q-88 116 -88 315zM293 487q0 -19 0.5 -34.5t4 -50t10 -61.5t21 -60t34 -55t50.5 -37t70 -15q159 0 162 334q0 29 6 49v129q0 68 -40.5 119 t-104.5 51q-51 0 -89.5 -24t-61.5 -61t-37.5 -88t-19.5 -98t-5 -98z" />
<glyph unicode="h" horiz-adv-x="989" d="M111 92v1237q0 55 19 73.5t73 18.5h39q56 0 73 -19.5t17 -70.5v-538h2q15 33 36 63t54.5 61.5t82.5 50.5t107 19q77 0 130 -21t81 -61.5t40 -89.5t12 -115v-610q0 -53 -18.5 -71.5t-72.5 -18.5h-47q-56 0 -73 19.5t-17 70.5v602q0 89 -23.5 126.5t-86.5 37.5 q-79 0 -140 -72.5t-61 -203.5v-490q0 -53 -18 -71.5t-72 -18.5h-45q-55 0 -73.5 19t-18.5 73z" />
<glyph unicode="i" horiz-adv-x="448" d="M98 1260v77q0 51 19 68.5t71 17.5h68q55 0 73.5 -19t18.5 -77v-57q0 -59 -19 -77.5t-73 -18.5h-68q-56 0 -73 19.5t-17 66.5zM113 92v782q0 55 19 74t73 19h39q56 0 73 -19.5t17 -70.5v-787q0 -53 -18 -71.5t-72 -18.5h-39q-55 0 -73.5 19t-18.5 73z" />
<glyph unicode="j" horiz-adv-x="501" d="M-127 -279q0 6 14 62q5 25 10.5 35t18.5 10q6 0 29 -12q44 -29 106 -29q33 0 56.5 9t35 21t17.5 32.5t7 33t1 33.5v961q0 53 18 71.5t72 18.5h41q56 0 73 -19.5t17 -70.5v-928q0 -153 -70 -232t-192 -79q-78 0 -166 28t-88 55zM139 1264v69q0 53 18 71.5t72 18.5h70 q56 0 73 -19.5t17 -70.5v-69q0 -53 -18 -71.5t-72 -18.5h-70q-56 0 -73 19.5t-17 70.5z" />
<glyph unicode="k" horiz-adv-x="933" d="M125 92v1237q0 55 19 73.5t73 18.5h19q56 0 73 -19.5t17 -70.5v-706l274 301q18 20 35.5 29t30 10.5t39.5 1.5h67q15 0 23.5 -0.5t20.5 -4t18 -12t6 -22.5q0 -13 -25 -41l-278 -303l317 -508q14 -20 14 -33q0 -20 -12.5 -30t-24 -11.5t-32.5 -1.5h-58q-22 0 -33 1 t-26.5 8t-24.5 22l-251 405l-87 -90v-256q0 -53 -18 -71.5t-72 -18.5h-12q-55 0 -73.5 19t-18.5 73z" />
<glyph unicode="l" horiz-adv-x="448" d="M113 92v1237q0 55 19 73.5t73 18.5h39q56 0 73 -19.5t17 -70.5v-1241q0 -53 -18 -71.5t-72 -18.5h-39q-55 0 -73.5 19t-18.5 73z" />
<glyph unicode="m" horiz-adv-x="1529" d="M111 92v795q0 55 19 73.5t73 18.5h33q56 0 73 -19.5t17 -70.5v-109l2 -2q10 24 22.5 46.5t37.5 54t54.5 54t74.5 38.5t97 16q228 0 258 -199q93 199 283 199q145 0 204.5 -72.5t59.5 -214.5v-610q0 -53 -18 -71.5t-72 -18.5h-45q-55 0 -73.5 19t-18.5 73v600 q0 88 -24 126t-87 38q-81 0 -141.5 -73t-60.5 -203v-490q0 -53 -18.5 -71.5t-72.5 -18.5h-45q-55 0 -73.5 19t-18.5 73v600q0 88 -23.5 126t-86.5 38q-82 0 -142.5 -73t-60.5 -203v-490q0 -53 -18 -71.5t-72 -18.5h-45q-55 0 -73.5 19t-18.5 73z" />
<glyph unicode="n" horiz-adv-x="989" d="M111 92v795q0 55 19 73.5t73 18.5h33q56 0 73 -19.5t17 -70.5v-111h2q94 209 286 209q77 0 130 -21t81 -61.5t40 -89.5t12 -115v-610q0 -53 -18.5 -71.5t-72.5 -18.5h-47q-56 0 -73 19.5t-17 70.5v602q0 89 -23.5 126.5t-86.5 37.5q-79 0 -140 -72.5t-61 -203.5v-490 q0 -53 -18 -71.5t-72 -18.5h-45q-55 0 -73.5 19t-18.5 73z" />
<glyph unicode="o" d="M53 475q0 236 105 375q57 77 144.5 112t182.5 35q58 0 112 -11.5t113.5 -45t100.5 -86.5q107 -135 107 -379q0 -241 -115 -369q-111 -126 -318 -126q-105 0 -189.5 36t-133.5 95q-109 133 -109 364zM281 500q0 -42 0.5 -65t4 -68.5t11 -73.5t22.5 -64t36 -56.5t54.5 -35 t75.5 -14.5q33 0 61 9t47.5 22.5t35.5 36.5t26 43.5t17 52.5t10.5 54t5.5 57t2 52.5v49.5q0 41 -0.5 64t-4.5 66.5t-11 71t-22 62t-36.5 54.5t-55 34t-75.5 14t-75.5 -14t-54.5 -33.5t-36 -54.5t-22.5 -61.5t-11 -71t-4 -67t-0.5 -64.5z" />
<glyph unicode="p" horiz-adv-x="989" d="M115 -250v1124q0 55 19 74t73 19h39q32 0 51.5 -6.5t27.5 -22.5t9.5 -29t1.5 -41q107 119 254 119q79 0 139.5 -32.5t96 -83t58 -119.5t30.5 -133t8 -132q0 -102 -17 -187.5t-67 -164.5q-49 -74 -129 -114.5t-170 -40.5q-53 0 -99.5 18.5t-97.5 73.5v-324 q0 -53 -18 -71.5t-72 -18.5h-45q-55 0 -73.5 19t-18.5 73zM342 190q53 -79 139 -79q44 0 79 18.5t56.5 44.5t37.5 66t23.5 72t11.5 73t4.5 58.5t0.5 39.5q0 23 -0.5 40t-4 57.5t-10 71t-21 69t-34.5 63.5t-52 42.5t-72 17.5q-92 0 -158 -76v-578z" />
<glyph unicode="q" horiz-adv-x="989" d="M66 481q0 211 75 338q32 54 77 91t91 52t76.5 20t58.5 5q134 0 207 -127v37q0 53 18 71.5t72 18.5h41q56 0 73 -19.5t17 -70.5v-1149q0 -53 -18 -71.5t-72 -18.5h-47q-56 0 -73 19.5t-17 70.5v340q-82 -108 -213 -108q-88 0 -155 33.5t-106 84t-63.5 120t-33 132.5 t-8.5 131zM293 479q0 -74 9.5 -136.5t31 -116.5t60.5 -84.5t93 -30.5q56 0 98 33t66 79v453q0 66 -41 117t-106 51q-43 0 -78 -18t-56.5 -44t-37 -64.5t-23 -70t-11.5 -72t-4.5 -58t-0.5 -38.5z" />
<glyph unicode="r" horiz-adv-x="655" d="M115 92v795q0 55 19 73.5t73 18.5h29q56 0 73 -19.5t17 -70.5v-135h2q41 119 116 176t152 57q23 0 28 -9t5 -44v-60q0 -37 -5.5 -44t-31.5 -9q-110 -9 -183 -94.5t-73 -222.5v-414q0 -53 -18 -71.5t-72 -18.5h-39q-55 0 -73.5 19t-18.5 73z" />
<glyph unicode="s" horiz-adv-x="745" d="M53 102q0 6 10 59t13 62q0 8 5 16.5t17 8.5t33 -21q106 -106 250 -106q21 0 36.5 1.5t37 9.5t35.5 21t24 39t10 62q0 33 -11 58.5t-24 39.5t-40 26t-43.5 16.5t-49.5 11.5q-290 58 -290 303q0 288 317 288q137 0 242 -55q30 -15 36.5 -21t6.5 -18q0 -6 -6 -36.5t-9 -39.5 q-6 -36 -10.5 -45.5t-17.5 -9.5q-11 0 -23 10q-99 88 -231 88q-63 0 -96 -27t-33 -93q0 -30 9.5 -53t22 -36t38 -24.5t43.5 -16t53 -12.5q51 -10 78 -18t66 -31t73 -61q75 -87 75 -211q0 -307 -315 -307q-106 0 -199 34q-133 48 -133 88z" />
<glyph unicode="t" horiz-adv-x="706" d="M37 901q0 66 92 66h39v184q0 55 19 73.5t73 18.5h27q56 0 73 -19.5t17 -70.5v-186h151q90 0 90 -66q0 -23 -9 -37.5t-26.5 -20t-28 -6.5t-26.5 -1h-151v-551q0 -91 17.5 -126.5t51.5 -35.5q38 0 74 17t55 40q17 25 31 25q12 0 17.5 -8t13.5 -35q1 -3 4.5 -17t6.5 -26.5 t3 -16.5q0 -16 -41 -44t-116.5 -53t-151.5 -25q-180 0 -180 268v588h-35q-16 0 -26.5 1t-28 6.5t-26.5 20t-9 37.5z" />
<glyph unicode="u" horiz-adv-x="989" d="M111 264v610q0 55 19 74t73 19h45q56 0 73 -19.5t17 -70.5v-627q0 -96 23 -129t100 -33q65 0 109 44.5t61.5 105.5t17.5 133v506q0 53 18 71.5t72 18.5h47q56 0 73.5 -20t17.5 -70v-787q0 -53 -18.5 -71.5t-72.5 -18.5h-41q-56 0 -73 19.5t-17 70.5v64 q-78 -174 -245 -174q-155 0 -227 65.5t-72 218.5z" />
<glyph unicode="v" horiz-adv-x="880" d="M43 915q3 18 10 29.5t19.5 16t22 5.5t26.5 1h24q55 0 77.5 -18.5t35.5 -63.5l184 -658l185 656q16 54 41 69t73 15h19q78 0 78 -52q0 -2 -7 -30l-227 -805q-8 -28 -20.5 -46t-30.5 -24.5t-30 -8t-34 -1.5h-98q-22 0 -34 1.5t-30 8t-30.5 24.5t-20.5 46z" />
<glyph unicode="w" horiz-adv-x="1312" d="M41 910.5v2.5q0 54 80 54h22q32 0 53 -6t32 -20.5t15.5 -26t10.5 -35.5l119 -504q19 -80 26 -139h2q4 30 39 188l107 450q6 25 10.5 37t15 27.5t30 22t48.5 6.5q15 0 25.5 -1.5t28 -8t30.5 -24.5t19 -46l155 -656l156 656q5 23 15 39t19.5 24t26.5 12t27.5 4.5t30.5 0.5 q19 0 30.5 -1t27 -6t23 -16.5t7.5 -30.5q0 -2 -6 -32l-191 -801q-5 -23 -15 -39t-19.5 -24t-25.5 -12t-25 -4.5t-25 -0.5h-99q-18 0 -28 1t-26 5t-27.5 15t-20.5 28q-4 10 -35 139t-65 295.5t-39 241.5q0 -68 -34 -236.5t-67 -301t-37 -140.5q-12 -22 -30.5 -33t-32 -12.5 t-37.5 -1.5h-39q-16 0 -25 0.5t-25 4.5t-25.5 12t-19.5 24t-15 39l-189 797q-2 7 -3.5 13.5t-2 10t-1.5 6t-1 4z" />
<glyph unicode="x" horiz-adv-x="880" d="M39 41q0 18 16 41l291 418l-278 387q-17 25 -17 39q0 15 6 24t18 12t20.5 4t23.5 1h49q44 0 58.5 -8t33.5 -35l174 -256l166 254q21 30 36 37.5t56 7.5h49q15 0 23.5 -1t20.5 -4.5t18 -13t6 -24.5t-16 -37l-271 -387l303 -422q17 -23 17 -37t-6 -23.5t-18.5 -12.5 t-21.5 -4t-24 -1h-49q-41 0 -57 8t-35 37l-197 320l-186 -318q-13 -23 -27 -33t-26 -12t-39 -2h-50q-21 0 -32.5 1.5t-23 11t-11.5 28.5z" />
<glyph unicode="y" horiz-adv-x="880" d="M49 918q0 23 14 34.5t27 13t35 1.5h25q67 0 89.5 -24.5t59.5 -125.5q164 -432 170 -575q10 121 84 379l76 264q7 24 16.5 40t18.5 24.5t25 12.5t27 4.5t34 0.5q27 0 42 -2t29.5 -14t14.5 -36q0 -4 -11 -38l-293 -981q-34 -112 -116 -185t-197 -73q-35 0 -80.5 6t-56.5 14 q-7 5 -13 58t-6 73q0 29 25 29q2 0 3 -0.5l4 -2l7 -3.5q61 -29 119 -29q84 0 123 70q11 18 30 74t19 71q0 6 -8 31l-326 852q-10 27 -10 37z" />
<glyph unicode="z" horiz-adv-x="841" d="M53 78q0 18 3.5 28.5t17.5 32.5l458 695h-77q-29 0 -133 -2.5t-134 -2.5q-20 0 -30.5 0.5t-27.5 4t-25.5 10t-15.5 20t-7 33.5t7 34t16 21t24 10.5t23 4t22 0.5h512q20 0 31 -1.5t27 -8t24 -23.5t8 -45q0 -19 -3 -29.5t-17 -32.5l-459 -694h94q46 0 140.5 2t140.5 2 q22 0 32.5 -0.5t28 -4t25.5 -10t15 -20.5t7 -34q0 -24 -9 -39t-26 -20.5t-28 -7t-27 -1.5h-547q-19 0 -30.5 1.5t-27.5 8t-24 23.5t-8 45z" />
<glyph unicode="{" d="M94 532v25q0 13 2.5 22t4 14t9.5 8t10 3.5t15.5 2t16.5 1.5q23 3 46 9.5t56 23t57.5 40t42 64.5t17.5 93v430q0 165 176 231q43 17 92 26t78.5 10t81.5 1h30q25 0 35 -8t10 -37v-31q0 -14 -0.5 -23t-4 -15.5t-5.5 -9.5t-11.5 -5t-14.5 -2.5t-22 -1.5t-28 -2 q-52 -5 -89 -16.5t-56 -24.5t-29 -32.5t-12 -32.5t-2 -31v-420q0 -32 -1.5 -51.5t-14 -59.5t-35.5 -69.5t-71.5 -64t-117.5 -58.5q66 -23 113.5 -55.5t71 -62.5t37 -67.5t16 -59.5t2.5 -50v-414q0 -23 1 -34.5t5.5 -28.5t16 -29.5t30.5 -24.5q39 -23 84.5 -30.5t72.5 -5 t45.5 -8t18.5 -40.5q0 -5 1.5 -14t1.5 -14q0 -33 -9 -45.5t-39 -12.5h-65q-54 0 -105.5 7.5t-105 26.5t-93 49t-64.5 79.5t-25 112.5v420q0 108 -63 165.5t-167 67.5q-31 3 -39 13t-8 46z" />
<glyph unicode="|" horiz-adv-x="540" d="M197 -358v1775q0 56 6 74q11 25 29.5 35t35.5 10q72 0 72 -96v-1798q0 -97 -72 -97q-28 0 -49.5 21t-21.5 76z" />
<glyph unicode="}" d="M94 -379q0 18 0.5 24t4.5 15t13.5 12t26.5 4q64 3 109.5 14t69 24t36 35t15 38.5t2.5 42.5v418q0 22 2 39.5t8 47t22 54.5t41 53.5t67.5 53.5t98.5 45q-66 23 -113.5 55.5t-71 62t-36.5 67t-15.5 59t-2.5 49.5v415q0 38 -4 54q-5 20 -17.5 36t-33 26.5t-38 17.5t-45 11 t-41 6t-39 3.5t-26.5 1.5q-15 2 -22.5 8.5t-9 14t-1.5 22.5v31q0 33 8.5 44t36.5 11h66q55 0 106.5 -7t105.5 -26.5t93.5 -49t64.5 -79t25 -112.5v-420q0 -68 23 -113q28 -52 83.5 -83.5t122.5 -37.5q31 -3 38 -12.5t7 -46.5v-25q0 -11 -1 -19t-4 -13.5t-5 -8.5t-8.5 -5 t-9 -2.5t-13 -1.5t-14.5 -1q-86 -10 -145 -61t-72 -115q-2 -10 -2 -64v-405q0 -69 -18 -113q-18 -39 -50 -69.5t-72 -48t-78 -29t-81 -16t-67 -6t-50 -1.5h-45q-26 0 -35.5 9t-9.5 36v31z" />
<glyph unicode="~" horiz-adv-x="1189" d="M164 1212q0 73 68.5 141t181.5 68q58 0 114 -17.5t92.5 -38.5t79 -38.5t76.5 -17.5q46 0 77.5 22.5t37.5 54.5q7 24 17 29.5t42 5.5q4 0 12.5 1t12.5 1q24 0 36.5 -7t12.5 -30q0 -73 -69 -141.5t-183 -68.5q-71 0 -140 28t-125.5 56t-96.5 28q-38 0 -72 -20.5t-43 -55.5 q-6 -24 -15 -30t-44 -6h-27q-24 0 -34.5 6.5t-10.5 29.5z" />
<glyph unicode="&#xa1;" horiz-adv-x="626" d="M203 -299l20 944q1 43 10.5 52.5t47.5 9.5h51q40 0 53 -7t14 -36l21 -963q0 -20 -8 -31t-33 -12h-129q-25 0 -36 8t-11 35zM203 935v26v36q1 51 24 67.5t66 16.5h41q32 0 51 -8.5t26 -27.5t8 -29t1 -33v-33q0 -42 -16.5 -65t-65.5 -23h-47q-26 0 -44 7.5t-26.5 15 t-13 25.5t-4.5 25z" />
<glyph unicode="&#xa2;" d="M63 483q0 231 109 361t301 149v66q0 88 66 88q65 0 65 -88v-62q79 -6 133.5 -20.5t126.5 -48.5q23 -11 31 -19.5t8 -25.5q0 -24 -9.5 -74.5t-29.5 -50.5q-12 0 -33 13t-45 29t-73 31.5t-109 20.5v-725q59 10 106 27t73.5 34.5t45.5 33.5t31.5 26t22.5 10q11 0 17.5 -9.5 t10.5 -37.5t4 -76q0 -45 -99 -92t-212 -59v-66q0 -88 -65 -88q-66 0 -66 90v64q-35 3 -69.5 10.5t-76 24t-78 41t-71.5 63.5t-60 88.5t-40 119t-15 152.5zM293 489q0 -66 6 -114.5t23.5 -100.5t55.5 -88.5t95 -54.5v715q-102 -32 -141 -119t-39 -238z" />
<glyph unicode="&#xa3;" horiz-adv-x="1243" d="M106 111q0 77 72.5 125.5t179.5 48.5q34 0 64 -6l2 155v211h-78q-17 0 -25.5 2t-15 13.5t-6.5 33.5v27q0 36 8.5 46.5t44.5 10.5h72v269q0 103 23.5 182.5t60.5 126.5t88.5 77t100.5 41t104 11q70 0 128.5 -28t95 -72t62 -99.5t36 -108t10.5 -100.5q0 -55 -29.5 -76.5 t-61.5 -21.5q-26 0 -50.5 15t-35.5 50h-8q-14 0 -21.5 1.5t-14 9t-7.5 22.5q-1 12 -1.5 57t-3.5 75t-12 67t-30.5 56.5t-54.5 19.5t-62.5 -16.5t-44.5 -37.5q-43 -58 -43 -223v-297h135q23 0 33 -10t10 -47v-25q0 -32 -10.5 -41.5t-34.5 -9.5h-133v-268q0 -83 -18 -156 q35 -11 79.5 -26t62.5 -21t47 -13t56 -10.5t66 -5.5q10 50 10 109q0 35 9.5 44t50.5 9h117q28 0 40.5 -7.5t12.5 -31.5q0 -29 -10 -64.5t-34 -75.5t-58.5 -72.5t-89.5 -54t-120 -21.5q-66 0 -139 20t-125.5 39.5t-66.5 19.5q-8 0 -39 -19.5t-91 -39.5t-137 -20 q-87 0 -128.5 41t-41.5 90z" />
<glyph unicode="&#xa4;" horiz-adv-x="1622" d="M66 -53q0 14 5 26t23.5 33t38.5 40.5t67 66t91 92.5q-123 162 -123 418q0 88 13.5 162.5t39 129t37.5 75t33 50.5q-187 187 -203 206q-22 31 -22 52q0 29 20.5 49.5t48.5 20.5q15 0 29.5 -7t36 -27t42.5 -42t63.5 -65.5t84.5 -83.5q174 121 420 121q138 0 236.5 -31.5 t181.5 -89.5q179 180 199 198q35 26 59 27q27 0 48 -21.5t21 -48.5q0 -14 -5 -26t-24 -33.5t-39 -40.5t-67.5 -66t-91.5 -92q123 -159 123 -417q0 -257 -123 -420q38 -38 96 -95q98 -96 114.5 -116.5t16.5 -44.5q0 -30 -22 -50t-47 -20q-15 0 -29.5 6.5t-37 27t-42.5 41.5 t-64 65.5t-85 84.5q-81 -54 -151 -79q-119 -43 -267 -43q-251 0 -420 122q-180 -182 -200 -199q-32 -26 -56 -26q-29 0 -49 21t-20 49zM311 618q0 -231 124 -363t376 -132q78 0 145.5 13.5t134 48.5t113.5 90t76 144.5t29 205.5q0 76 -13 143t-48 133.5t-89.5 114t-144 77 t-205.5 29.5q-77 0 -145 -13.5t-134.5 -49t-113.5 -90.5t-76 -145t-29 -206z" />
<glyph unicode="&#xa5;" horiz-adv-x="1302" d="M-57 475q0 28 18 44t34.5 19t33.5 3h501q-1 21 -12.5 45.5t-30 51.5t-59.5 92.5t-84 141.5h-313q-88 0 -88 66q0 22 13.5 39.5t33.5 23.5q17 5 43 5h229q-64 105 -141 230q-58 92 -68 111t-10 33q0 15 6.5 24t20 12t23.5 4t28 1h72q32 0 51 -2t40 -15.5t33.5 -26.5 t37.5 -51t44.5 -72.5t63 -107.5t84.5 -140h244q34 59 122 203t101 159q41 53 116 53h70q62 0 62 -41q0 -5 -1 -9.5t-5 -13t-9 -18t-15 -26t-20.5 -34t-29 -46.5t-37 -59t-46.5 -75.5t-57 -92.5h230q90 0 90 -68q0 -66 -88 -66h-313q-46 -81 -97.5 -159.5t-69.5 -111 t-18 -60.5h494q90 0 92 -66q0 -65 -84 -65h-502v-320q0 -45 -18.5 -67.5t-67.5 -22.5h-78q-28 0 -46 8t-25 23.5t-9 27t-2 29.5v322h-497q-90 0 -90 65zM625 872l28 -53l17 -39q6 19 23 52.5t20 39.5h-88z" />
<glyph unicode="&#xa6;" horiz-adv-x="323" d="M90 285q0 52 22 73t50 21q26 0 44 -16.5t23 -38.5q4 -14 4 -45v-641q0 -52 -21.5 -72.5t-49.5 -20.5q-26 0 -44.5 16.5t-23.5 37.5q-4 16 -4 47v639zM90 803v639q0 52 21.5 72t50.5 20q26 0 44 -15.5t23 -37.5q4 -14 4 -45v-639q0 -54 -21.5 -74.5t-49.5 -20.5 q-26 0 -44.5 16.5t-23.5 37.5q-4 16 -4 47z" />
<glyph unicode="&#xa7;" horiz-adv-x="929" d="M88 -188q0 18 18 108q8 31 25 31q10 0 25.5 -18.5t38.5 -45t55 -53t86.5 -45t120.5 -18.5q44 0 77.5 20t52 51.5t27.5 63.5t9 61q0 21 -6.5 40t-14.5 33t-24 28.5t-27 23.5t-33 21t-31.5 16.5t-33 14.5t-27.5 12q-139 63 -215 168.5t-76 226.5q0 165 131 268 q-131 131 -131 289q0 136 95 235t243 99q58 0 117 -16t100.5 -38.5t67.5 -45.5t26 -39q0 -39 -10.5 -92.5t-30.5 -53.5q-10 0 -23.5 15.5t-32.5 38t-45 45t-70.5 38t-98.5 15.5q-46 0 -80.5 -20.5t-52.5 -52.5t-26.5 -63.5t-8.5 -60.5q0 -23 6.5 -44t22 -38t28 -29.5 t37.5 -26.5t35.5 -19.5t37.5 -17.5t30 -13q137 -62 215 -168.5t78 -225.5q0 -164 -133 -268q133 -133 133 -291q0 -83 -38.5 -157.5t-117.5 -124t-182 -49.5q-204 0 -346 131q-23 23 -23 41zM305 557q0 -29 12.5 -55t29 -43.5t45 -36t49 -28t53 -24t45.5 -20.5q86 70 86 170 q0 30 -11.5 55.5t-26 42.5t-42.5 35t-47.5 27.5t-56 26t-52.5 24.5q-84 -73 -84 -174z" />
<glyph unicode="&#xa8;" d="M170 1260v71q0 53 20.5 71.5t69.5 18.5h68q23 0 36.5 -2t28.5 -10t22 -26.5t7 -47.5v-67q0 -24 -1.5 -36.5t-9 -29.5t-27 -25t-50.5 -8q-4 0 -12.5 1t-12.5 1h-45q-22 0 -35.5 2.5t-28.5 10.5t-22.5 27t-7.5 49zM549 1255v80q0 51 21 68.5t69 17.5h68q47 0 70.5 -16.5 t23.5 -71.5v-73q0 -47 -19 -69t-69 -22q-4 0 -13 1t-14 1h-43q-23 0 -36 2t-28.5 9t-22.5 25.5t-7 47.5z" />
<glyph unicode="&#xa9;" horiz-adv-x="2162" d="M106 539q0 173 31.5 318.5t85.5 250.5t130 187.5t161 134.5t183 86t190.5 47.5t189.5 13.5q460 0 716.5 -271t256.5 -763q0 -173 -31.5 -318.5t-85.5 -250.5t-130 -187.5t-161 -135t-183 -86.5t-190.5 -47.5t-189.5 -13.5q-460 0 -716.5 271.5t-256.5 763.5zM250 541 q0 -156 28.5 -288.5t92 -245t159 -191.5t235 -123.5t314.5 -44.5q87 0 168 11.5t165 40.5t155.5 74t135 115.5t108 161t70.5 215t26 273.5q0 150 -25.5 275t-70 216t-108 162t-134.5 116t-155.5 74t-166.5 40.5t-170 11.5q-91 0 -174 -12.5t-167 -42t-155 -75.5t-133 -117 t-105 -161.5t-68 -214t-25 -270.5zM539 498q0 50 7.5 98t28 102t52 101t84.5 91t120.5 75.5t164 50t212.5 18.5q108 0 189 -21t94 -40q4 -4 4 -21q0 -12 -20 -129q-8 -45 -27 -45q-10 0 -29.5 12.5t-42 27.5t-67 27.5t-99.5 12.5q-101 0 -178.5 -24t-122.5 -60.5 t-73.5 -86.5t-38 -94.5t-9.5 -92.5q0 -32 4 -62t15.5 -67.5t30.5 -69.5t52.5 -63t77.5 -52.5t109 -35t144 -13.5q64 0 114 11.5t73 25.5t44 25.5t35 11.5q15 0 20 -15t6 -47v-10q2 -16 3.5 -31.5t2.5 -23t1 -10.5q0 -13 -5 -22t-11.5 -13.5t-20.5 -11.5 q-66 -39 -124.5 -53.5t-139.5 -14.5q-118 0 -217 19t-168 50t-122 75.5t-85 92t-52.5 102t-28 102.5t-7.5 98z" />
<glyph unicode="&#xaa;" horiz-adv-x="864" d="M43 559q0 66 88 66h598q88 0 88 -66q0 -25 -18 -45t-66 -20h-608q-34 0 -54 14t-24 26.5t-4 24.5zM53 932q0 64 97 90q130 29 327 33v121q0 109 -13 171t-30 79.5t-43 17.5q-53 0 -96.5 -21.5t-65.5 -48t-40.5 -48t-28.5 -21.5q-31 0 -31 120q0 20 7 30.5t28 27.5 q108 84 242 84q32 0 64 -6.5t72.5 -27t71.5 -53.5t56 -92t32 -137q5 -41 5 -98v-297q0 -31 -7 -50t-23 -26.5t-29.5 -9.5t-37.5 -2h-37q-21 0 -36.5 3t-25 11t-15.5 14t-8.5 19t-3.5 19t-1 21v19q-76 -124 -211 -124q-91 0 -155 55t-64 127zM274 932q0 -15 19 -33t57 -18 q84 0 121 100q-112 -8 -154.5 -18t-42.5 -31z" />
<glyph unicode="&#xab;" horiz-adv-x="1296" d="M154 483q0 8 6.5 19t15 21.5t27 33t33.5 41.5l274 332q1 1 5 6.5t5 6.5t5 5.5t5 5.5t5 4t6.5 4t7 3t8.5 2.5t9.5 1t11.5 0.5h81q48 0 48 -25q0 -18 -171 -230.5t-171 -230.5q0 -14 20 -37q82 -104 188 -240q95 -120 114.5 -146.5t19.5 -36.5q0 -23 -43 -23h-86 q-26 0 -38 7.5t-36 37.5q-86 105 -200 243q-110 133 -130 159t-20 36zM543 483q0 6 2.5 12.5t10 16.5t15.5 19.5t24 29.5t30 37l274 332q1 1 5 6.5t5 6.5t4.5 5.5t5 5.5t5.5 4t6.5 4t6.5 3t8 2.5t9 1t11 0.5h82q49 0 49 -25q0 -18 -172 -230t-172 -231q0 -10 20 -37 q81 -102 187 -237q97 -122 117 -149t20 -37q0 -23 -43 -23h-86q-27 0 -38.5 7.5t-35.5 37.5q-74 90 -179 217q-122 148 -146.5 179.5t-24.5 41.5z" />
<glyph unicode="&#xac;" horiz-adv-x="1296" d="M109 754q0 27 20 49t68 22h901q55 0 71.5 -25t16.5 -69v-463q0 -16 -0.5 -22.5t-3.5 -22t-12 -26t-23 -17.5q-13 -8 -33 -8q-21 0 -44 16t-26 56q-2 18 -2 55v383h-845q-29 0 -48 8.5t-27 22t-10.5 23t-2.5 18.5z" />
<glyph unicode="&#xad;" horiz-adv-x="323" d="M23 483q0 66 83 66h349q34 0 54 -14t24 -27t4 -25q0 -25 -18 -45t-66 -20h-347q-83 0 -83 65z" />
<glyph unicode="&#xae;" horiz-adv-x="2162" d="M106 539q0 173 31.5 318.5t85.5 250.5t130 187.5t161 134.5t183 86t190.5 47.5t189.5 13.5q460 0 716.5 -271t256.5 -763q0 -173 -31.5 -318.5t-85.5 -250.5t-130 -187.5t-161 -135t-183 -86.5t-190.5 -47.5t-189.5 -13.5q-460 0 -716.5 271.5t-256.5 763.5zM250 541 q0 -156 28.5 -288.5t92 -245t159 -191.5t235 -123.5t314.5 -44.5q87 0 168 11.5t165 40.5t155.5 74t135 115.5t108 161t70.5 215t26 273.5q0 150 -25.5 275t-70 216t-108 162t-134.5 116t-155.5 74t-166.5 40.5t-170 11.5q-91 0 -174 -12.5t-167 -42t-155 -75.5t-133 -117 t-105 -161.5t-68 -214t-25 -270.5zM645 90v813q0 48 19 70t69 22h389q63 0 112.5 -4t123 -18.5t131.5 -51t92 -92.5q37 -55 37 -127q0 -21 -3.5 -41.5t-20 -54.5t-44 -61.5t-81 -54.5t-126.5 -41q74 -100 169 -230q88 -119 103 -141.5t15 -36.5q0 -41 -61 -41h-84 q-41 0 -60.5 11.5t-50.5 54.5q-254 356 -260 366h-223v-352q0 -28 -8.5 -46t-25 -24.5t-27.5 -8t-29 -1.5h-72q-29 1 -47.5 9.5t-25.5 24t-9 27t-2 29.5zM891 563h221q49 0 83 2t72 10.5t61 23t38.5 40.5t15.5 63q0 36 -14.5 62t-37.5 40.5t-60.5 22.5t-72.5 10.5t-85 2.5 h-221v-277z" />
<glyph unicode="&#xaf;" d="M133 1364v45q0 32 8.5 42.5t36.5 10.5h610q27 0 37.5 -9.5t10.5 -39.5v-45q0 -34 -8 -45.5t-40 -11.5h-610q-28 0 -36.5 10t-8.5 43z" />
<glyph unicode="&#xb0;" horiz-adv-x="649" d="M106 1206q0 97 59.5 156t156.5 59q102 0 158.5 -61.5t56.5 -153.5q0 -97 -58.5 -156t-156.5 -59q-102 0 -159 61.5t-57 153.5zM250 1210q0 -75 72 -75q71 0 71 71q0 72 -71 72q-38 0 -55 -19.5t-17 -48.5z" />
<glyph unicode="&#xb1;" horiz-adv-x="1513" d="M109 125q0 29 20.5 50.5t73.5 21.5h479v434h-485q-28 0 -47 8t-27 20.5t-11 22.5t-3 20q0 72 92 72h481v483q0 52 22.5 72.5t49.5 20.5t49 -20t22 -68v-488h486q29 0 48.5 -8t27.5 -21t11 -23t3 -20q0 -71 -92 -71h-484v-434h488q28 0 47 -8.5t27 -21.5t11 -23t3 -19 q0 -28 -19.5 -50t-70.5 -22h-1108q-94 0 -94 72z" />
<glyph unicode="&#xb2;" horiz-adv-x="864" d="M84 1436q0 9 13.5 25t41.5 36t64 38t89 30t109 12q164 0 264.5 -86.5t100.5 -210.5q0 -27 -5.5 -49.5t-19 -42t-25.5 -34t-36.5 -32t-40.5 -27.5t-47.5 -29.5t-48.5 -29.5q-158 -104 -193 -135l197 2h139q27 0 44.5 -8t24.5 -23t9 -27t2 -28v-14q0 -20 -2 -32.5t-9.5 -28 t-26 -23.5t-48.5 -8h-496q-31 0 -50 7t-26.5 22.5t-9.5 27.5t-2 33q0 32 5 41.5t32 31.5q53 44 114 93.5t94 76t70 58t54 49.5t33.5 40.5t22 41.5t5.5 41q0 56 -42 90.5t-111 34.5q-47 0 -84 -14.5t-54.5 -31.5t-33.5 -31.5t-27 -14.5q-18 0 -54 57t-36 72z" />
<glyph unicode="&#xb3;" horiz-adv-x="864" d="M82 752q0 10 5 49t9 51q5 27 33 27q5 0 91 -11.5t179 -11.5q66 0 98.5 24t32.5 87q0 71 -35.5 92.5t-105.5 21.5h-18q-30 0 -38.5 12.5t-8.5 43.5v32q1 28 14 37.5t42 11.5t44 9q33 13 50.5 46t17.5 70q0 43 -22 60.5t-64 17.5q-45 0 -85.5 -11t-63.5 -24.5t-43.5 -24.5 t-29.5 -11q-19 0 -45 47.5t-26 64.5q0 20 41.5 46.5t114.5 47.5t147 21q89 0 154 -23t97 -60.5t46 -75t14 -77.5q0 -38 -11 -70.5t-32.5 -56.5t-35 -35t-35.5 -27q-2 -2 -3.5 -3t-3.5 -2q72 -18 123 -62t51 -120q0 -37 -8.5 -71t-34 -72.5t-65.5 -66.5t-110 -46.5 t-161 -18.5q-84 0 -185.5 11t-119.5 20q-14 8 -14 31z" />
<glyph unicode="&#xb4;" d="M369 1135q0 9 15.5 32t60.5 86q14 19 22 30t22.5 31.5t28.5 39.5q36 50 46 56q12 7 34 7h141q39 0 39 -24q0 -12 -50 -58q-11 -10 -17 -16q-41 -38 -102 -95q-104 -96 -124 -107q-13 -7 -36 -7h-33q-47 0 -47 25z" />
<glyph unicode="&#xb5;" horiz-adv-x="989" d="M109 -256v1135q0 43 17.5 65.5t70.5 22.5h51q58 0 74 -23.5t16 -77.5v-606q0 -97 21 -133.5t100 -36.5q26 0 49.5 6.5t50 27t46 53t32 89t12.5 131.5v477q0 49 16 71t72 22h47q46 0 69.5 -15.5t23.5 -66.5v-803q0 -28 -8 -45.5t-22.5 -25t-26.5 -9.5t-29 -2h-48 q-31 0 -50 7t-27.5 22t-10.5 28.5t-2 36.5v58q-76 -172 -245 -172q-24 0 -70 4v-240q0 -30 -8.5 -49t-24 -26t-27 -9t-28.5 -2h-57q-28 0 -46.5 7.5t-26 22t-9.5 26.5t-2 30z" />
<glyph unicode="&#xb6;" horiz-adv-x="1189" d="M106 946q0 179 123.5 316t313.5 157q25 2 75 2h414q98 0 98 -69q0 -74 -94 -74h-65v-1507q0 -29 -2 -41q-1 -30 -21.5 -50t-48.5 -20t-48.5 19.5t-23.5 48.5v1550h-135v-1526q0 -53 -22 -72.5t-49 -19.5q-22 0 -40.5 13t-25.5 34q-6 14 -6 47v719q-108 16 -194.5 64 t-139.5 114t-81 141.5t-28 153.5z" />
<glyph unicode="&#xb7;" horiz-adv-x="421" d="M84 461v151q0 15 0.5 20.5t4 15.5t13 14t25.5 4h162q26 0 36.5 -9.5t10.5 -38.5v-147q0 -17 -0.5 -22.5t-4 -15.5t-13.5 -13.5t-27 -3.5h-160q-27 0 -37 8t-10 37z" />
<glyph unicode="&#xb8;" horiz-adv-x="864" d="M209 -313q0 12 61 107q14 21 22.5 35t25 40t32.5 51q13 23 24.5 31t35.5 8h36q23 0 34.5 -6t11.5 -23q0 -3 -1 -7t-3.5 -11t-5.5 -14.5t-9.5 -22t-13.5 -30t-19 -42t-24 -53.5q-3 -7 -8 -19t-7 -17t-6 -13.5t-6 -11.5t-5.5 -9t-6.5 -7.5t-7 -4.5t-8.5 -3.5t-10.5 -1.5 t-13 -1h-80q-17 0 -25 1t-16 6.5t-8 17.5z" />
<glyph unicode="&#xb9;" horiz-adv-x="864" d="M135 1358q0 17 10.5 35t34.5 26q3 1 35 4.5t59 10t66.5 32t69.5 66.5q13 17 20 24.5t23 14t39 6.5q75 0 75 -86v-647h68q90 0 90 -66q0 -67 -84 -67h-395q-27 0 -45 7t-26 18.5t-10.5 20.5t-2.5 19q0 28 17 44.5t33 20t34 3.5h88v471q-73 -23 -123 -23q-43 0 -59.5 22 t-16.5 44z" />
<glyph unicode="&#xba;" horiz-adv-x="864" d="M43 559q0 66 88 66h598q88 0 88 -66q0 -25 -18 -45t-66 -20h-608q-34 0 -54 14t-24 26.5t-4 24.5zM51 1141q0 98 23.5 174.5t60.5 123t88.5 76t101.5 41t105 11.5t105 -11t101.5 -41t88.5 -76t60.5 -122.5t23.5 -173.5q0 -193 -100 -294t-281 -101q-55 0 -105 10.5 t-101 38t-88 70.5t-60 113.5t-23 160.5zM281 1126q1 -43 4.5 -73t12.5 -62.5t24.5 -52t43 -32.5t64.5 -13q31 0 55.5 10t40 24t26.5 38.5t16.5 44t8 51.5t3 49t0.5 47v45q0 70 -11 118t-45.5 81t-93.5 33q-41 0 -70.5 -18t-44 -42t-23 -60.5t-10 -61t-1.5 -56.5v-70z" />
<glyph unicode="&#xbb;" horiz-adv-x="1296" d="M199 25q0 18 172 230t172 230q0 4 -2 8t-4 7t-7 10t-8 12q-77 98 -181 229q-99 125 -120.5 154t-21.5 39q0 25 39 25h90q14 0 21.5 -0.5t16.5 -7t13 -11t19 -22.5t26 -31l311 -379q17 -23 17 -35q0 -13 -19 -37l-340 -413q-1 -1 -5.5 -6.5t-5.5 -6t-5 -4.5t-6 -5t-6 -3.5 t-7 -3.5t-8 -2t-10.5 -1.5t-11.5 -0.5h-66q-37 0 -50 5t-13 20zM588 23q0 19 171 232.5t171 229.5q0 10 -21 37q-95 122 -209 268q-78 98 -95 121.5t-17 32.5q0 25 39 25h90q11 0 18.5 -1.5t12.5 -3t12.5 -8.5t11.5 -12t17 -20.5t22 -26.5l311 -379q19 -19 19 -35t-21 -37 l-340 -413q-11 -14 -15.5 -18.5t-17.5 -9.5t-32 -5h-66q-61 0 -61 23z" />
<glyph unicode="&#xbc;" horiz-adv-x="864" d="M-14 598q0 25 17.5 46.5t47.5 25.5h725q105 0 105 -72q0 -16 -5.5 -30.5t-26.5 -28t-56 -13.5h-721q-27 0 -46 8.5t-26.5 21.5t-10.5 23t-3 19zM55 -131q0 40 5.5 54.5t31.5 51.5q60 87 143 210q100 149 125.5 174.5t73.5 25.5h131q30 0 48.5 -9t25.5 -26t8.5 -28.5 t1.5 -30.5v-373h72q19 0 30 -1.5t27.5 -8.5t24.5 -25t8 -47q0 -28 -8.5 -46t-24 -25t-26.5 -9t-27 -2h-76q0 -22 -1.5 -33t-8.5 -28.5t-26 -26t-50 -8.5h-41q-26 0 -44.5 7t-27 15t-13 24t-5 24.5t-0.5 25.5h-291q-42 0 -64 18t-22 70v27zM137 1438q0 37 27 52t65 14.5 t93.5 9.5t97.5 36q6 3 15 8.5t13.5 8t12 5.5t14.5 4t17 1q77 0 77 -86v-547h68q35 0 51 -6q19 -7 30 -23.5t11 -35.5q0 -27 -19.5 -47.5t-70.5 -20.5h-387q-49 0 -68.5 20.5t-19.5 47.5q0 37 33 55q18 10 59 10h80v438q-78 -10 -103 -10q-96 0 -96 66zM252 -82h190v295 q-29 -54 -105 -167.5t-85 -127.5z" />
<glyph unicode="&#xbd;" horiz-adv-x="864" d="M-14 598q0 25 17.5 46.5t47.5 25.5h725q105 0 105 -72q0 -16 -5.5 -30.5t-26.5 -28t-56 -13.5h-721q-27 0 -46 8.5t-26.5 21.5t-10.5 23t-3 19zM86 328q0 30 103 63t212 33q102 0 177.5 -25t114.5 -65t57 -81.5t18 -82.5q0 -43 -14 -76t-47 -61t-65 -48t-92 -55t-104 -65 l-88 -62q24 0 118.5 1t101.5 1h106q82 0 82 -73q0 -74 -82 -74h-496q-88 0 -88 68q0 13 6.5 23.5t16 18t34 26t46.5 36.5q46 39 118 93.5t109.5 84.5t67.5 72.5t30 85.5q0 57 -42.5 91t-110.5 34q-47 0 -84 -14.5t-54.5 -31.5t-33.5 -31.5t-27 -14.5q-17 0 -53.5 56.5 t-36.5 72.5zM137 1438q0 37 27 52t65 14.5t93.5 9.5t97.5 36q6 3 15 8.5t13.5 8t12 5.5t14.5 4t17 1q77 0 77 -86v-547h68q35 0 51 -6q19 -7 30 -23.5t11 -35.5q0 -27 -19.5 -47.5t-70.5 -20.5h-387q-49 0 -68.5 20.5t-19.5 47.5q0 37 33 55q18 10 59 10h80v438 q-78 -10 -103 -10q-96 0 -96 66z" />
<glyph unicode="&#xbe;" horiz-adv-x="864" d="M-14 598q0 25 17.5 46.5t47.5 25.5h725q105 0 105 -72q0 -16 -5.5 -30.5t-26.5 -28t-56 -13.5h-721q-27 0 -46 8.5t-26.5 21.5t-10.5 23t-3 19zM55 -131q0 40 5.5 54.5t31.5 51.5q60 87 143 210q100 149 125.5 174.5t73.5 25.5h131q30 0 48.5 -9t25.5 -26t8.5 -28.5 t1.5 -30.5v-373h72q19 0 30 -1.5t27.5 -8.5t24.5 -25t8 -47q0 -28 -8.5 -46t-24 -25t-26.5 -9t-27 -2h-76q0 -22 -1.5 -33t-8.5 -28.5t-26 -26t-50 -8.5h-41q-26 0 -44.5 7t-27 15t-13 24t-5 24.5t-0.5 25.5h-291q-42 0 -64 18t-22 70v27zM84 791q0 1 10 83q5 36 19 43.5 t70 10.5q15 1 24 2q38 3 83 4.5t73.5 1.5t59 2t48 7t33 14.5t22 26t6.5 40.5q0 92 -116 92h-41q-32 0 -40.5 12t-8.5 44v32q1 21 8.5 31.5t17 12.5t30 4t34.5 6q34 9 56 38.5t22 61.5q0 61 -88 61q-74 0 -144 -16l-69 -16q-7 0 -13 2.5t-10 5.5t-9.5 10.5t-8 12.5t-9 17 t-10.5 19q-20 38 -20 47q0 30 107 52t190 22q76 0 135 -15t92.5 -37.5t55 -53t29 -58.5t7.5 -57q0 -108 -106 -170q159 -48 159 -162q0 -30 -8.5 -60.5t-30.5 -63t-55 -58t-88 -44.5t-125 -24q-13 -1 -124.5 -3t-203.5 -9q-5 0 -14.5 -1t-13.5 -1q-35 0 -35 31zM252 -82h190 v295q-29 -54 -105 -167.5t-85 -127.5z" />
<glyph unicode="&#xbf;" horiz-adv-x="919" d="M106 -49q0 69 12.5 115.5t35 76t46.5 54.5t54 68.5t51 99.5q39 107 39 237q0 7 -1 21t-1 20q0 38 7.5 51t35.5 13h74q41 0 49 -9.5t8 -54.5v-18q0 -4 1 -14t1 -15q0 -220 -137 -471q-22 -41 -29 -57.5t-12 -47.5t-6 -90q0 -90 21 -124.5t83 -34.5t119.5 19.5t90 43 t59.5 43t36 19.5q15 0 30 -31t23 -63l7 -31q0 -15 -13 -27t-45 -27q-144 -77 -319 -77q-320 0 -320 311zM322 935v26v36q1 51 24 67.5t66 16.5h39q26 0 44 -7.5t26.5 -15t13 -25t4.5 -24.5v-26v-33q0 -42 -17 -65t-65 -23h-47q-26 0 -44 7.5t-26.5 15t-13 25.5t-4.5 25z" />
<glyph unicode="&#xc0;" horiz-adv-x="1302" d="M72 51q0 1 8 33l395 1262q9 27 22.5 43.5t32.5 22.5t30.5 7.5t31.5 1.5h117q21 0 33 -1.5t30 -8t31 -23.5t22 -45l396 -1263q8 -23 8 -29q0 -18 -7.5 -29.5t-21.5 -15.5t-23.5 -5t-25.5 -1h-70q-34 0 -53.5 4.5t-34.5 23t-22.5 38t-22.5 65.5l-67 219h-496l-86 -268 q-7 -21 -12 -32.5t-17.5 -25t-34 -19t-53.5 -5.5h-32q-16 0 -25.5 1t-23.5 5t-21.5 15.5t-7.5 29.5zM356 1774q0 22 41 22h213q11 0 19 -1.5t16.5 -5.5t12 -6.5t14 -10.5t14.5 -11q40 -32 98 -77q76 -60 89.5 -72.5t13.5 -24.5q0 -22 -39 -22h-74q-24 0 -35 3t-41 17 q-83 42 -193 96q-112 56 -130.5 67.5t-18.5 25.5zM432 504h402l-115 379q-74 246 -86 321h-2q-9 -69 -80 -305z" />
<glyph unicode="&#xc1;" horiz-adv-x="1302" d="M72 51q0 1 8 33l395 1262q9 27 22.5 43.5t32.5 22.5t30.5 7.5t31.5 1.5h117q21 0 33 -1.5t30 -8t31 -23.5t22 -45l396 -1263q8 -23 8 -29q0 -18 -7.5 -29.5t-21.5 -15.5t-23.5 -5t-25.5 -1h-70q-34 0 -53.5 4.5t-34.5 23t-22.5 38t-22.5 65.5l-67 219h-496l-86 -268 q-7 -21 -12 -32.5t-17.5 -25t-34 -19t-53.5 -5.5h-32q-16 0 -25.5 1t-23.5 5t-21.5 15.5t-7.5 29.5zM414 1587q0 6 4 12.5t11.5 14t13.5 12.5t16.5 13t13.5 10q27 21 55 43.5t42.5 34.5t32 25t24 19t17.5 12t14 7.5t11.5 3.5t12.5 2h14h191h8.5h9h8t8.5 -1t7.5 -2t6.5 -2.5 t4.5 -3.5t3.5 -5.5t1 -7.5q0 -17 -26 -31q-1 0 -85 -42t-172 -85.5t-96 -46.5q-12 -4 -39 -4h-55q-57 0 -57 22zM432 504h402l-115 379q-74 246 -86 321h-2q-9 -69 -80 -305z" />
<glyph unicode="&#xc2;" horiz-adv-x="1302" d="M72 51q0 1 8 33l395 1262q9 27 22.5 43.5t32.5 22.5t30.5 7.5t31.5 1.5h117q21 0 33 -1.5t30 -8t31 -23.5t22 -45l396 -1263q8 -23 8 -29q0 -18 -7.5 -29.5t-21.5 -15.5t-23.5 -5t-25.5 -1h-70q-34 0 -53.5 4.5t-34.5 23t-22.5 38t-22.5 65.5l-67 219h-496l-86 -268 q-7 -21 -12 -32.5t-17.5 -25t-34 -19t-53.5 -5.5h-32q-16 0 -25.5 1t-23.5 5t-21.5 15.5t-7.5 29.5zM305 1528q0 9 17 37q18 26 64 94.5t83 123.5t39 58q7 11 12 16t15 9t26 4q3 0 9.5 -1t9.5 -1h159h13.5t10.5 -2t8 -3t7 -5.5t6 -7.5t6 -11t6 -13t7.5 -18t9.5 -22 q102 -244 102 -256q0 -16 -10 -20.5t-31 -4.5h-38q-11 0 -17.5 1t-13.5 3t-14.5 9t-16 15t-24 25.5t-32 36t-46 51t-60.5 66.5h-2q-38 -42 -92 -102q-70 -79 -86.5 -92t-44.5 -13h-33q-49 0 -49 23zM432 504h402l-115 379q-74 246 -86 321h-2q-9 -69 -80 -305z" />
<glyph unicode="&#xc3;" horiz-adv-x="1302" d="M72 51q0 1 8 33l395 1262q9 27 22.5 43.5t32.5 22.5t30.5 7.5t31.5 1.5h117q21 0 33 -1.5t30 -8t31 -23.5t22 -45l396 -1263q8 -23 8 -29q0 -18 -7.5 -29.5t-21.5 -15.5t-23.5 -5t-25.5 -1h-70q-34 0 -53.5 4.5t-34.5 23t-22.5 38t-22.5 65.5l-67 219h-496l-86 -268 q-7 -21 -12 -32.5t-17.5 -25t-34 -19t-53.5 -5.5h-32q-16 0 -25.5 1t-23.5 5t-21.5 15.5t-7.5 29.5zM328 1546q0 43 9 90t28.5 97t59 82t93.5 32q42 0 75.5 -21.5t55 -52t40.5 -61.5t41.5 -52.5t47.5 -21.5q38 0 50 39.5t14 124.5q2 26 10 36.5t37 10.5h35q31 0 41 -9.5 t10 -35.5q0 -41 -9 -87.5t-29 -96.5t-60 -82.5t-93 -32.5q-42 0 -76 21.5t-55.5 52t-40.5 61.5t-41.5 52.5t-48.5 21.5q-36 0 -49.5 -42t-13.5 -124q0 -14 -2 -22t-13 -14.5t-32 -6.5h-41q-27 0 -35 9.5t-8 31.5zM432 504h402l-115 379q-74 246 -86 321h-2q-9 -69 -80 -305z " />
<glyph unicode="&#xc4;" horiz-adv-x="1302" d="M72 51q0 1 8 33l395 1262q9 27 22.5 43.5t32.5 22.5t30.5 7.5t31.5 1.5h117q21 0 33 -1.5t30 -8t31 -23.5t22 -45l396 -1263q8 -23 8 -29q0 -18 -7.5 -29.5t-21.5 -15.5t-23.5 -5t-25.5 -1h-70q-34 0 -53.5 4.5t-34.5 23t-22.5 38t-22.5 65.5l-67 219h-496l-86 -268 q-7 -21 -12 -32.5t-17.5 -25t-34 -19t-53.5 -5.5h-32q-16 0 -25.5 1t-23.5 5t-21.5 15.5t-7.5 29.5zM336 1602v71q0 51 20.5 70.5t69.5 19.5h68q30 0 47.5 -4t32 -24t14.5 -58v-80q0 -43 -19 -64.5t-69 -21.5h-70q-47 0 -70.5 17.5t-23.5 73.5zM432 504h402l-115 379 q-74 246 -86 321h-2q-9 -69 -80 -305zM715 1597v70q0 18 0.5 26.5t5 24.5t13 24t27 14.5t44.5 6.5h67q22 0 36 -2.5t28.5 -11t21.5 -27.5t7 -49v-71q0 -50 -20 -70.5t-66 -20.5h-70q-23 0 -36.5 2t-28.5 10t-22 26.5t-7 47.5z" />
<glyph unicode="&#xc5;" horiz-adv-x="1302" d="M74 51q0 8 10 43l354 1133q6 19 17.5 55t17.5 55q-22 23 -36.5 46t-28 72t-13.5 114q0 68 14.5 119.5t36 81t52 48.5t57 25t55.5 6t56 -6t57.5 -25t52.5 -48.5t36.5 -81t14.5 -119.5q0 -54 -6.5 -89.5t-25.5 -80.5q23 -29 34 -68l392 -1247q6 -15 6 -33q0 -51 -72 -51 h-72q-69 0 -92 31t-61 158q-13 44 -21 69q-21 66 -28 92h-496q-13 -43 -35 -114q-51 -165 -74 -200.5t-90 -35.5h-39q-73 0 -73 51zM432 504h402q-134 441 -164.5 547.5t-36.5 158.5q-6 -35 -20 -90.5t-31.5 -119t-36.5 -127.5t-39 -129.5t-34 -111.5t-26.5 -86t-13.5 -42z M504 1554q0 -62 22 -97.5t82 -35.5q64 0 87.5 36t23.5 106v20q0 61 -22.5 97t-86.5 36q-34 0 -56.5 -11t-32.5 -33t-13.5 -43t-3.5 -52v-23z" />
<glyph unicode="&#xc6;" horiz-adv-x="1677" d="M76 49q0 20 39 117l426 1149q9 24 11.5 29t11.5 23.5t16 23.5t20 14.5t30.5 12.5t39.5 3h813q25 0 42 -7t25 -14.5t12 -23.5t4.5 -24.5t0.5 -26.5t-2 -29.5t-8.5 -27t-24 -23.5t-45.5 -8l-422 6v-424h362q86 0 86 -80q0 -30 -8.5 -48.5t-24.5 -26t-28 -9.5t-31 -2h-356 v-463q51 0 241 4.5t207 4.5q49 0 65.5 -23.5t16.5 -64.5v-21q0 -55 -22.5 -72.5t-65.5 -17.5h-598q-48 0 -70 17t-22 73v324h-385l-121 -322q-18 -52 -42.5 -72t-78.5 -20h-43q-71 0 -71 49zM489 569h328v676h-76z" />
<glyph unicode="&#xc7;" horiz-adv-x="1243" d="M106 709q0 120 18.5 221.5t52 177.5t81.5 136.5t104 101t122.5 67t134.5 38t143 11.5q178 0 323 -63q19 -9 26 -18t7 -23q-16 -156 -39 -170q-2 -2 -10 -2q-11 0 -37 15.5t-56 33.5t-88 33.5t-126 15.5q-55 0 -105 -11.5t-106.5 -49t-97.5 -97.5t-68 -167t-27 -248 q0 -103 14 -188t37.5 -143t57.5 -102.5t69.5 -71t77.5 -42.5t77.5 -21.5t74.5 -5.5q84 0 149.5 17t96 37.5t56.5 37.5t40 17q33 0 33 -137q0 -18 -9 -29t-40 -31q-83 -52 -154 -71t-182 -19h16q45 0 45 -25q0 -9 -25 -68.5t-50 -115.5l-25 -55q-10 -21 -21 -27t-32 -6h-82 q-50 0 -50 23q0 13 27 53q113 180 120 189q30 30 50 32h27q-59 0 -116.5 8t-123.5 30.5t-123 57.5t-111 94t-92 135t-61 185t-23 240z" />
<glyph unicode="&#xc8;" horiz-adv-x="1159" d="M166 92v1231q0 55 19 73.5t73 18.5h703q58 0 74 -21t16 -71q0 -34 -6 -53t-22.5 -27.5t-31 -10t-47.5 -1.5q-48 0 -217 3t-217 3h-94v-420h491q17 0 26 -0.5t23.5 -5t21.5 -12.5t13 -25t6 -41q0 -29 -7.5 -47t-23 -25t-27 -8.5t-32.5 -1.5h-491v-463q46 5 270 5 q48 0 144.5 2t144.5 2q29 0 43.5 -1.5t30.5 -10t22 -27.5t6 -52v-16q0 -53 -18 -71.5t-72 -18.5h-729q-55 0 -73.5 19t-18.5 73zM260 1774q0 22 41 22h211q11 0 19 -1.5t16.5 -5.5t13 -7t14.5 -10t15 -11q49 -39 114 -91q64 -50 75.5 -61t11.5 -22q0 -22 -41 -22h-74 q-24 0 -34 2.5t-42 17.5q-73 37 -175 88q-122 60 -143.5 73t-21.5 28z" />
<glyph unicode="&#xc9;" horiz-adv-x="1159" d="M166 92v1231q0 55 19 73.5t73 18.5h703q58 0 74 -21t16 -71q0 -34 -6 -53t-22.5 -27.5t-31 -10t-47.5 -1.5q-48 0 -217 3t-217 3h-94v-420h491q17 0 26 -0.5t23.5 -5t21.5 -12.5t13 -25t6 -41q0 -29 -7.5 -47t-23 -25t-27 -8.5t-32.5 -1.5h-491v-463q46 5 270 5 q48 0 144.5 2t144.5 2q29 0 43.5 -1.5t30.5 -10t22 -27.5t6 -52v-16q0 -53 -18 -71.5t-72 -18.5h-729q-55 0 -73.5 19t-18.5 73zM397 1587q0 6 4 12.5t12 13.5t14 12.5t16.5 13t13.5 10.5q27 21 55 43.5t42.5 34.5t32 25t24 19t17.5 12t14 7.5t11.5 3.5t12.5 2h14h190h8.5h9 h8.5t9 -1t7 -2t6.5 -2.5t5 -3.5t3.5 -5.5t1 -7.5q0 -16 -27 -31q-1 0 -85 -42t-171.5 -85.5t-95.5 -46.5q-12 -4 -39 -4h-55q-58 0 -58 22z" />
<glyph unicode="&#xca;" horiz-adv-x="1159" d="M166 92v1231q0 55 19 73.5t73 18.5h703q58 0 74 -21t16 -71q0 -34 -6 -53t-22.5 -27.5t-31 -10t-47.5 -1.5q-48 0 -217 3t-217 3h-94v-420h491q17 0 26 -0.5t23.5 -5t21.5 -12.5t13 -25t6 -41q0 -29 -7.5 -47t-23 -25t-27 -8.5t-32.5 -1.5h-491v-463q46 5 270 5 q48 0 144.5 2t144.5 2q29 0 43.5 -1.5t30.5 -10t22 -27.5t6 -52v-16q0 -53 -18 -71.5t-72 -18.5h-729q-55 0 -73.5 19t-18.5 73zM250 1528q0 4 2 9.5t7.5 15t12.5 20.5t21 32t28.5 43t39.5 59.5l51 76.5q38 58 51.5 71t40.5 13h98q14 0 21 -1t16 -7.5t18 -20.5l187 -278 q14 -19 14 -33q0 -23 -49 -23h-33q-18 0 -27.5 3t-25 18t-30.5 33t-54 62t-84 91h-2q-37 -41 -90 -100q-72 -80 -88.5 -93.5t-46.5 -13.5h-25q-17 0 -26 1t-18 6t-9 16z" />
<glyph unicode="&#xcb;" horiz-adv-x="1159" d="M166 92v1231q0 55 19 73.5t73 18.5h703q58 0 74 -21t16 -71q0 -34 -6 -53t-22.5 -27.5t-31 -10t-47.5 -1.5q-48 0 -217 3t-217 3h-94v-420h491q17 0 26 -0.5t23.5 -5t21.5 -12.5t13 -25t6 -41q0 -29 -7.5 -47t-23 -25t-27 -8.5t-32.5 -1.5h-491v-463q46 5 270 5 q48 0 144.5 2t144.5 2q29 0 43.5 -1.5t30.5 -10t22 -27.5t6 -52v-16q0 -53 -18 -71.5t-72 -18.5h-729q-55 0 -73.5 19t-18.5 73zM238 1602v71q0 52 21.5 71t68.5 19h69q29 0 46 -4t31.5 -24t14.5 -58v-69q0 -24 -2 -37.5t-9.5 -29.5t-26 -23t-48.5 -7h-71q-22 0 -35.5 2.5 t-28.5 10.5t-22.5 27.5t-7.5 50.5zM616 1597v70q0 17 0.5 26t5 25t13.5 24t27.5 14.5t44.5 6.5h69q46 0 69 -17t23 -73v-71q0 -47 -19 -69t-69 -22h-69q-22 0 -35.5 2t-29 10t-23 26.5t-7.5 47.5z" />
<glyph unicode="&#xcc;" horiz-adv-x="579" d="M-29 1774q0 22 41 22h211q25 0 45.5 -13t99.5 -76q44 -35 72 -58q40 -32 50 -42.5t10 -19.5q0 -22 -39 -22h-74q-2 0 -6 -1t-6 -1q-22 0 -170 76q-109 55 -191 96q-24 13 -33.5 21t-9.5 18zM166 92v1237q0 55 19 73.5t73 18.5h68q56 0 73 -19.5t17 -70.5v-1241 q0 -53 -18 -71.5t-72 -18.5h-68q-55 0 -73.5 19t-18.5 73z" />
<glyph unicode="&#xcd;" horiz-adv-x="579" d="M133 1587q0 6 4 12.5t12 13.5t14 12.5t16.5 13t13.5 10.5q30 24 60.5 48.5t46 37t31.5 25.5t24.5 18t16 10t15 6t12.5 1.5t17 0.5h188q5 0 15.5 -0.5t16.5 -1t13.5 -2.5t11 -6.5t3.5 -11.5q0 -14 -27 -31q-334 -170 -352 -174q-18 -6 -39 -6q-2 0 -8 1t-9 1 q-6 0 -19.5 -1t-19.5 -1q-57 0 -57 24zM164 92v1237q0 55 19 73.5t73 18.5h68q56 0 73 -19.5t17 -70.5v-1241q0 -53 -18 -71.5t-72 -18.5h-68q-55 0 -73.5 19t-18.5 73z" />
<glyph unicode="&#xce;" horiz-adv-x="579" d="M-14 1528q0 13 20 43q30 45 76 115q90 137 109.5 159.5t48.5 22.5h98q24 0 34.5 -5.5t22.5 -23.5l187 -278q12 -24 12 -31q0 -25 -49 -25h-31q-28 0 -40 9t-56 57q-106 115 -127 141h-2q-21 -25 -83.5 -93.5t-76.5 -82.5q-11 -13 -17 -17.5t-18 -9t-31 -4.5h-24 q-17 0 -26 1t-18 6t-9 16zM164 92v1237q0 55 19 73.5t73 18.5h68q56 0 73 -19.5t17 -70.5v-1241q0 -53 -18 -71.5t-72 -18.5h-68q-55 0 -73.5 19t-18.5 73z" />
<glyph unicode="&#xcf;" horiz-adv-x="579" d="M-25 1597v80q0 50 22 68t69 18h67q22 0 36 -2.5t29 -11t22 -27.5t7 -49v-61q0 -19 -0.5 -27.5t-4.5 -25.5t-13 -25.5t-26.5 -15.5t-43.5 -7h-71q-21 0 -35 2.5t-28.5 10.5t-22 26t-7.5 47zM164 92v1237q0 55 19 73.5t73 18.5h68q56 0 73 -19.5t17 -70.5v-1241 q0 -53 -18 -71.5t-72 -18.5h-68q-55 0 -73.5 19t-18.5 73zM352 1599v74q0 52 21 71t69 19h68q30 0 47.5 -4t32 -24t14.5 -58v-69q0 -22 -1.5 -34t-9 -29.5t-27 -25.5t-50.5 -8h-70q-22 0 -35.5 2t-28.5 10t-22.5 27t-7.5 49z" />
<glyph unicode="&#xd0;" horiz-adv-x="1406" d="M-59 698q0 26 18.5 46t67.5 20h139v563q0 30 4 47.5t24 32t58 14.5h422q146 0 257.5 -40.5t180 -107.5t112 -163t60 -195.5t16.5 -216.5q0 -113 -16.5 -209t-60 -189t-112 -157t-180 -103.5t-257.5 -39.5h-424q-25 0 -42 7t-25 15.5t-12 24t-4.5 23.5t-0.5 24v539h-143 q-26 0 -44 7.5t-25.5 19t-10 20.5t-2.5 18zM412 156h170q6 0 19.5 -1t19.5 -1q106 0 184 27.5t125.5 73.5t76 116t38.5 144t10 169v12q0 175 -31.5 296t-122.5 194q-101 82 -278 82h-211v-504h268q90 0 90 -66q0 -28 -19.5 -46.5t-48.5 -18.5h-290v-477z" />
<glyph unicode="&#xd1;" horiz-adv-x="1386" d="M166 92v1237q0 55 19 73.5t73 18.5h148q55 0 81.5 -16t47.5 -66l387 -905q63 -148 84 -217h2v1114q0 53 18 71.5t72 18.5h32q56 0 73.5 -20t17.5 -70v-1241q0 -53 -18.5 -71.5t-72.5 -18.5h-149q-55 0 -81.5 16t-47.5 66l-387 905q-63 148 -84 217h-2v-1114 q0 -53 -18 -71.5t-72 -18.5h-31q-55 0 -73.5 19t-18.5 73zM369 1544q0 45 9 93t29 97.5t60 81t94 31.5q42 0 75 -21.5t54.5 -52t40.5 -61.5t41 -52.5t47 -21.5q66 0 66 156v10q0 11 1 17.5t5.5 14t15 10.5t27.5 3h31q32 0 41.5 -9t9.5 -36q0 -41 -9 -87.5t-28.5 -96.5 t-59.5 -82.5t-94 -32.5q-42 0 -75.5 21.5t-55 52t-40.5 61.5t-41 52.5t-48 21.5q-31 0 -47 -35t-16 -120v-11q0 -14 -2.5 -22t-13.5 -14.5t-31 -6.5h-41q-20 0 -30.5 7t-12.5 14t-2 18z" />
<glyph unicode="&#xd2;" horiz-adv-x="1427" d="M109 700q0 188 35.5 314t99.5 221q74 108 197.5 166.5t271.5 58.5q42 0 84 -4.5t99 -21t107 -43t103.5 -75t93.5 -112.5q117 -186 117 -504q0 -361 -162 -553q-84 -99 -201.5 -142.5t-240.5 -43.5q-137 0 -251.5 48t-185.5 130q-167 194 -167 561zM358 733 q0 -134 13 -230t49 -181q27 -64 66 -108.5t81 -66t77 -30t69 -8.5q26 0 52.5 4.5t61 18t65 35.5t61.5 61.5t53 90.5q27 63 41 141.5t17 135t3 137.5q0 79 -2.5 131.5t-19.5 133t-48 141.5q-29 56 -69 94t-81.5 55t-72.5 23t-61 6q-77 0 -152.5 -38.5t-126.5 -129.5 q-27 -47 -44 -103.5t-23 -120t-7.5 -100.5t-1.5 -92zM418 1774q0 22 41 22h213q11 0 19 -1.5t16.5 -5.5t12 -6.5t14 -10.5t14.5 -11q180 -142 189 -152q11 -11 11 -22q0 -22 -39 -22h-84q-17 0 -43.5 11.5t-163.5 80.5q-29 14 -46.5 23t-49.5 24.5t-61 30.5q-24 13 -33.5 21 t-9.5 18z" />
<glyph unicode="&#xd3;" horiz-adv-x="1427" d="M109 700q0 188 35.5 314t99.5 221q74 108 197.5 166.5t271.5 58.5q42 0 84 -4.5t99 -21t107 -43t103.5 -75t93.5 -112.5q117 -186 117 -504q0 -361 -162 -553q-84 -99 -201.5 -142.5t-240.5 -43.5q-137 0 -251.5 48t-185.5 130q-167 194 -167 561zM358 733 q0 -134 13 -230t49 -181q27 -64 66 -108.5t81 -66t77 -30t69 -8.5q26 0 52.5 4.5t61 18t65 35.5t61.5 61.5t53 90.5q27 63 41 141.5t17 135t3 137.5q0 79 -2.5 131.5t-19.5 133t-48 141.5q-29 56 -69 94t-81.5 55t-72.5 23t-61 6q-77 0 -152.5 -38.5t-126.5 -129.5 q-27 -47 -44 -103.5t-23 -120t-7.5 -100.5t-1.5 -92zM475 1587q0 6 3.5 12.5t12 14t13 11.5t16 12.5t12.5 9.5q25 20 50.5 40.5t40.5 32.5t30.5 25t24.5 19.5t18 13.5t15 9t11 5t11.5 3t10.5 0.5t14 0.5h190q5 0 15.5 -0.5t16 -1t12.5 -2.5t10.5 -6.5t3.5 -11.5 q0 -14 -27 -31q-1 0 -85 -42.5t-171.5 -86t-95.5 -45.5q-18 -6 -39 -6q-3 0 -9 1t-8 1q-7 0 -20 -1t-19 -1q-57 0 -57 24z" />
<glyph unicode="&#xd4;" horiz-adv-x="1427" d="M109 700q0 188 35.5 314t99.5 221q74 108 197.5 166.5t271.5 58.5q42 0 84 -4.5t99 -21t107 -43t103.5 -75t93.5 -112.5q117 -186 117 -504q0 -361 -162 -553q-84 -99 -201.5 -142.5t-240.5 -43.5q-137 0 -251.5 48t-185.5 130q-167 194 -167 561zM358 733 q0 -134 13 -230t49 -181q27 -64 66 -108.5t81 -66t77 -30t69 -8.5q26 0 52.5 4.5t61 18t65 35.5t61.5 61.5t53 90.5q27 63 41 141.5t17 135t3 137.5q0 79 -2.5 131.5t-19.5 133t-48 141.5q-29 56 -69 94t-81.5 55t-72.5 23t-61 6q-77 0 -152.5 -38.5t-126.5 -129.5 q-27 -47 -44 -103.5t-23 -120t-7.5 -100.5t-1.5 -92zM408 1528q0 16 110 179l16 24t16 24.5t19 28.5q42 62 54 73t39 11h98q8 0 14 -0.5t10.5 -1.5t9 -4l7.5 -5t8 -9t8.5 -11.5t11.5 -15.5t13 -19l162 -241q12 -24 12 -33q0 -11 -8.5 -16t-16.5 -6t-24 -1h-31q-15 0 -22.5 2 t-16 6t-23 20.5t-31 34.5t-53 59.5t-77.5 84.5h-2q-34 -38 -85 -94q-76 -85 -93.5 -99t-47.5 -14h-26q-51 0 -51 23z" />
<glyph unicode="&#xd5;" horiz-adv-x="1427" d="M109 700q0 188 35.5 314t99.5 221q74 108 197.5 166.5t271.5 58.5q42 0 84 -4.5t99 -21t107 -43t103.5 -75t93.5 -112.5q117 -186 117 -504q0 -361 -162 -553q-84 -99 -201.5 -142.5t-240.5 -43.5q-137 0 -251.5 48t-185.5 130q-167 194 -167 561zM358 733 q0 -134 13 -230t49 -181q27 -64 66 -108.5t81 -66t77 -30t69 -8.5q26 0 52.5 4.5t61 18t65 35.5t61.5 61.5t53 90.5q27 63 41 141.5t17 135t3 137.5q0 79 -2.5 131.5t-19.5 133t-48 141.5q-29 56 -69 94t-81.5 55t-72.5 23t-61 6q-77 0 -152.5 -38.5t-126.5 -129.5 q-27 -47 -44 -103.5t-23 -120t-7.5 -100.5t-1.5 -92zM389 1544q0 47 9.5 95t29.5 97t59.5 80t92.5 31q42 0 75 -21.5t54.5 -52t40.5 -61.5t41.5 -52.5t48.5 -21.5q31 0 47 35.5t16 120.5v10q0 23 9 34t40 11h33q34 0 42.5 -10t8.5 -37q0 -39 -9 -84.5t-28.5 -96t-59.5 -83.5 t-93 -33q-42 0 -76 21.5t-55.5 52t-40.5 61.5t-41.5 52.5t-48.5 21.5q-36 0 -50 -42t-14 -122q0 -12 -1 -18.5t-5.5 -13.5t-14.5 -10t-26 -3h-41q-15 0 -24.5 3t-13 10t-4.5 12t-1 14z" />
<glyph unicode="&#xd6;" horiz-adv-x="1427" d="M109 700q0 188 35.5 314t99.5 221q74 108 197.5 166.5t271.5 58.5q42 0 84 -4.5t99 -21t107 -43t103.5 -75t93.5 -112.5q117 -186 117 -504q0 -361 -162 -553q-84 -99 -201.5 -142.5t-240.5 -43.5q-137 0 -251.5 48t-185.5 130q-167 194 -167 561zM358 733 q0 -134 13 -230t49 -181q27 -64 66 -108.5t81 -66t77 -30t69 -8.5q26 0 52.5 4.5t61 18t65 35.5t61.5 61.5t53 90.5q27 63 41 141.5t17 135t3 137.5q0 79 -2.5 131.5t-19.5 133t-48 141.5q-29 56 -69 94t-81.5 55t-72.5 23t-61 6q-77 0 -152.5 -38.5t-126.5 -129.5 q-27 -47 -44 -103.5t-23 -120t-7.5 -100.5t-1.5 -92zM397 1599v74q0 52 21 71t69 19h68q21 0 35 -2.5t29 -10.5t22.5 -26t7.5 -47q0 -3 -1 -9t-1 -9v-51q0 -23 -1.5 -35t-9 -29t-26 -25t-49.5 -8h-69q-22 0 -35.5 2t-29 10t-23 27t-7.5 49zM776 1597v80q0 50 20.5 68 t67.5 18h70q22 0 35.5 -2.5t28 -11t21.5 -27.5t7 -49v-61q0 -24 -1.5 -35.5t-8.5 -30t-26 -27t-50 -8.5h-72q-29 0 -46 4t-31.5 24t-14.5 58z" />
<glyph unicode="&#xd7;" horiz-adv-x="1513" d="M279 139q0 19 19.5 42t131.5 134l62 62t70.5 71t92.5 93l-167 167q-157 156 -183 185.5t-26 52.5q0 29 19 50.5t50 21.5h2q9 0 15.5 -1.5t16 -7.5t18.5 -13.5t26 -23.5t34 -33.5t48 -48.5t63 -63.5t82 -83t103 -102.5h2q79 80 190 192q137 139 164 162t51 23 q27 0 48.5 -20t21.5 -50q0 -9 -1.5 -16t-7 -16.5t-13 -19t-23.5 -26.5t-34 -34.5t-49 -48t-63.5 -62t-82 -81.5t-101.5 -103q73 -74 179 -180q165 -164 184 -190q12 -17 12 -38q0 -31 -21.5 -51.5t-48.5 -20.5q-8 0 -15 1.5t-16.5 8t-19 14.5t-27 24.5t-35.5 34.5t-48.5 49 t-62 63.5t-81 81.5t-100.5 100h-2q-74 -74 -180 -181q-146 -147 -174.5 -171.5t-53.5 -24.5q-24 0 -46.5 18.5t-22.5 59.5z" />
<glyph unicode="&#xd8;" horiz-adv-x="1513" d="M106 696q0 140 25 255.5t65 193.5t96.5 137t113 92.5t123 54t119 27t106.5 6.5q147 0 272 -51q35 76 56 110t34 43t35 9q29 0 51.5 -20t22.5 -48q0 -33 -74 -166q124 -91 187 -254t63 -380q0 -164 -35.5 -293.5t-95.5 -213t-144 -138.5t-175 -78t-195 -23q-136 0 -275 49 q-47 -100 -69 -130t-54 -30q-29 0 -52 20t-23 50q0 4 0.5 8t2 9.5t3.5 10t6 13t7 15.5t9.5 20l11.5 23l14.5 29t16.5 34q-129 93 -188.5 254.5t-59.5 361.5zM336 690q0 -318 102 -448l520 1036q-94 51 -204 51q-103 0 -189 -44.5t-137 -123.5q-57 -90 -74.5 -197.5 t-17.5 -248.5v-25zM549 141q103 -49 207 -49q171 0 280 109q45 45 74.5 106.5t42.5 133.5t17 128.5t4 128.5q0 163 -18 268t-85 212z" />
<glyph unicode="&#xd9;" horiz-adv-x="1343" d="M166 467v862q0 55 19 73.5t73 18.5h68q56 0 73 -19.5t17 -70.5v-866q0 -350 262 -350q272 0 272 352v864q0 53 18 71.5t72 18.5h47q56 0 73.5 -20t17.5 -70v-864q0 -107 -30.5 -197.5t-90.5 -160.5t-157.5 -109t-223.5 -39q-248 0 -379 140.5t-131 365.5zM377 1774 q0 22 41 22h213q11 0 19 -1.5t16.5 -5.5t12 -6.5t14 -10.5t14.5 -11q180 -142 189 -152q11 -11 11 -22q0 -22 -39 -22h-84q-17 0 -43.5 11.5t-163.5 80.5q-94 46 -157 78q-24 13 -33.5 21t-9.5 18z" />
<glyph unicode="&#xda;" horiz-adv-x="1343" d="M166 467v862q0 55 19 73.5t73 18.5h68q56 0 73 -19.5t17 -70.5v-866q0 -350 262 -350q272 0 272 352v864q0 53 18 71.5t72 18.5h47q56 0 73.5 -20t17.5 -70v-864q0 -107 -30.5 -197.5t-90.5 -160.5t-157.5 -109t-223.5 -39q-248 0 -379 140.5t-131 365.5zM516 1587 q0 6 3.5 12.5t12 14t13 11.5t16 12.5t12.5 9.5q25 20 50.5 40.5t40.5 32.5t30.5 25t24.5 19.5t18 13.5t15 9t11 5t11.5 3t10.5 0.5t14 0.5h190q5 0 15.5 -0.5t16 -1t12.5 -2.5t10.5 -6.5t3.5 -11.5q0 -14 -27 -31q-1 0 -85 -42.5t-171.5 -86t-95.5 -45.5q-18 -6 -39 -6 q-3 0 -9 1t-8 1q-7 0 -20 -1t-19 -1q-57 0 -57 24z" />
<glyph unicode="&#xdb;" horiz-adv-x="1343" d="M166 467v862q0 55 19 73.5t73 18.5h68q56 0 73 -19.5t17 -70.5v-866q0 -350 262 -350q272 0 272 352v864q0 53 18 71.5t72 18.5h47q56 0 73.5 -20t17.5 -70v-864q0 -107 -30.5 -197.5t-90.5 -160.5t-157.5 -109t-223.5 -39q-248 0 -379 140.5t-131 365.5zM373 1528 q0 13 20 43l176 262q9 14 13.5 20t15.5 10.5t29 4.5h86q16 0 23.5 -2t15.5 -6.5t19.5 -21.5t25.5 -36.5t44 -62t64 -88.5q76 -105 76 -123q0 -11 -8.5 -16t-16.5 -6t-24 -1h-31q-15 0 -24.5 3t-18.5 8.5t-24 22t-31.5 35.5t-51 58t-73.5 80h-2q-32 -35 -79 -88 q-79 -89 -97 -104t-49 -15h-25q-17 0 -26 1t-18 6t-9 16z" />
<glyph unicode="&#xdc;" horiz-adv-x="1343" d="M166 467v862q0 55 19 73.5t73 18.5h68q56 0 73 -19.5t17 -70.5v-866q0 -350 262 -350q272 0 272 352v864q0 53 18 71.5t72 18.5h47q56 0 73.5 -20t17.5 -70v-864q0 -107 -30.5 -197.5t-90.5 -160.5t-157.5 -109t-223.5 -39q-248 0 -379 140.5t-131 365.5zM356 1599v76 q0 50 21.5 69t68.5 19h70q21 0 34.5 -2.5t28.5 -10.5t22 -27t7 -48v-65v-23t-4 -24t-11.5 -27t-24 -17t-40.5 -8h-88q-16 0 -27.5 2t-26 10t-22.5 27t-8 49zM735 1599v76q0 51 21.5 69.5t68.5 18.5h68q45 0 68.5 -16t23.5 -72v-65v-25.5t-4.5 -24.5t-12.5 -26t-25.5 -15.5 t-43.5 -7.5h-72q-21 0 -34.5 2.5t-28.5 10.5t-22 27t-7 48z" />
<glyph unicode="&#xdd;" horiz-adv-x="1302" d="M39 1378q0 15 6.5 24.5t19.5 13t22 4.5t24 1h84q21 0 33 -1.5t34 -7t41 -22t35 -42.5l231 -387q73 -125 99 -183q13 40 99 188.5t163 273.5t84 134q41 47 125 47h51q16 0 25 -1t22 -4.5t19 -13t6 -24.5q0 -7 -19 -41l-471 -770v-479q0 -55 -20 -71.5t-70 -16.5h-64 q-54 0 -72 18.5t-18 71.5v479l-477 777q-12 18 -12 32zM494 1587q0 6 4 12.5t11.5 14t13.5 12.5t16.5 13t13.5 10q27 21 55 43.5t42.5 34.5t32 25t24 19t17.5 12t14 7.5t11.5 3.5t12.5 2h14h191h8.5h9h8t8.5 -1t7.5 -2t6.5 -2.5t4.5 -3.5t3.5 -5.5t1 -7.5q0 -16 -27 -31 q-1 0 -85 -42t-171.5 -85.5t-95.5 -46.5q-12 -4 -39 -4h-55q-57 0 -57 22z" />
<glyph unicode="&#xde;" horiz-adv-x="1138" d="M164 90v1245q0 42 18 64t66 22h67q20 0 32.5 -2.5t27 -10.5t21.5 -26t7 -47v-137h199q426 0 426 -416q0 -66 -11 -122.5t-40.5 -111.5t-75.5 -93.5t-121.5 -62t-173.5 -23.5h-203v-283q0 -18 -2 -29.5t-9.5 -26.5t-27 -22.5t-49.5 -7.5h-67q-30 0 -49 9t-25.5 26.5t-8 27 t-1.5 27.5zM403 524h152q238 0 238 258q0 76 -21 128.5t-59.5 80.5t-83.5 39.5t-103 11.5h-123v-518z" />
<glyph unicode="&#xdf;" horiz-adv-x="958" d="M113 94v1063q0 54 12 97t32 72.5t50 51t60.5 33.5t70.5 19.5t73 9.5t74 2q63 0 114.5 -7.5t99.5 -26.5t80.5 -50t51.5 -80.5t19 -114.5q0 -285 -215 -295q-7 -24 -12 -75t-6 -90l-1 -39q0 -30 14.5 -40t51.5 -18t63 -22q71 -36 109.5 -115.5t38.5 -181.5 q0 -76 -16.5 -133.5t-40.5 -89.5t-58.5 -52t-64 -26t-62.5 -6q-82 0 -143.5 43.5t-61.5 80.5t11.5 90.5t29.5 53.5q11 0 24.5 -19.5t26.5 -43t41 -43t64 -19.5q74 0 74 133q0 57 -11.5 88t-33.5 42t-45.5 16.5t-55.5 21t-57 45.5q-70 85 -70 244q0 255 172 282q9 30 9 45 q0 99 -6 152t-10.5 61.5t-16.5 20.5q-30 35 -111 35q-41 0 -68.5 -8.5t-42.5 -20t-23 -34.5t-9.5 -42.5t-1.5 -52.5v-1069q0 -28 -8 -45.5t-22.5 -25t-26.5 -9.5t-29 -2h-49q-26 0 -43.5 6.5t-26 14.5t-13 24t-5 24t-0.5 25z" />
<glyph unicode="&#xe0;" horiz-adv-x="925" d="M53 270q0 49 15 91t38.5 72t60 55t70.5 41t79 29t77 19t72.5 11t58 6t41.5 2q15 2 19 7.5t4 31.5v41q0 57 -10.5 97.5t-24 60t-35.5 30t-34.5 12t-32.5 1.5q-150 0 -256 -103q-22 -20 -33 -20q-14 0 -19 11t-8 48q-6 48 -6 74q0 16 8 23t41 24q129 63 281 63 q180 0 268 -85t88 -234v-588q0 -53 -18 -71.5t-72 -18.5h-41q-56 0 -73 19.5t-17 70.5v51q-33 -59 -103.5 -110t-168.5 -51q-116 0 -192.5 87.5t-76.5 202.5zM268 274q0 -66 39 -114.5t99 -48.5q14 0 32.5 3t46.5 16t49.5 34t37.5 60.5t16 92.5v207q-37 -2 -72 -8t-82.5 -23 t-82 -42.5t-59 -71.5t-24.5 -105zM301 1395q0 22 37 22h139q14 0 23 -1.5t17.5 -8.5t11.5 -10.5t12.5 -17t13.5 -19.5q156 -205 156 -227q0 -23 -41 -23h-37q-18 0 -28 3.5t-40.5 27.5t-80 69.5t-147.5 136.5l-3 3l-8 8q-8 7 -12 11.5t-8.5 12t-4.5 13.5z" />
<glyph unicode="&#xe1;" horiz-adv-x="925" d="M53 270q0 49 15 91t38.5 72t60 55t70.5 41t79 29t77 19t72.5 11t58 6t41.5 2q15 2 19 7.5t4 31.5v41q0 57 -10.5 97.5t-24 60t-35.5 30t-34.5 12t-32.5 1.5q-150 0 -256 -103q-22 -20 -33 -20q-14 0 -19 11t-8 48q-6 48 -6 74q0 16 8 23t41 24q129 63 281 63 q180 0 268 -85t88 -234v-588q0 -53 -18 -71.5t-72 -18.5h-41q-56 0 -73 19.5t-17 70.5v51q-33 -59 -103.5 -110t-168.5 -51q-116 0 -192.5 87.5t-76.5 202.5zM262 1135q0 13 95 143q34 47 55 76q36 50 46 56q12 7 34 7h139q39 0 39 -24q0 -10 -10.5 -21.5t-55.5 -52.5 q-41 -38 -102 -95q-104 -96 -124 -107q-13 -7 -36 -7h-35q-45 0 -45 25zM268 274q0 -66 39 -114.5t99 -48.5q14 0 32.5 3t46.5 16t49.5 34t37.5 60.5t16 92.5v207q-37 -2 -72 -8t-82.5 -23t-82 -42.5t-59 -71.5t-24.5 -105z" />
<glyph unicode="&#xe2;" horiz-adv-x="925" d="M53 270q0 49 15 91t38.5 72t60 55t70.5 41t79 29t77 19t72.5 11t58 6t41.5 2q15 2 19 7.5t4 31.5v41q0 57 -10.5 97.5t-24 60t-35.5 30t-34.5 12t-32.5 1.5q-150 0 -256 -103q-22 -20 -33 -20q-14 0 -19 11t-8 48q-6 48 -6 74q0 16 8 23t41 24q129 63 281 63 q180 0 268 -85t88 -234v-588q0 -53 -18 -71.5t-72 -18.5h-41q-56 0 -73 19.5t-17 70.5v51q-33 -59 -103.5 -110t-168.5 -51q-116 0 -192.5 87.5t-76.5 202.5zM160 1135q0 5 3 11t10.5 16t16 20t24 29t30.5 38q68 85 96.5 117t41 39.5t32.5 7.5h141q23 0 34 -5t25 -26 l140 -213q14 -23 14 -34q0 -25 -35 -25h-45q-25 0 -38 7t-56 46l-129 115h-2q-11 -10 -162 -143q-19 -16 -31.5 -20.5t-36.5 -4.5h-28q-45 0 -45 25zM268 274q0 -66 39 -114.5t99 -48.5q14 0 32.5 3t46.5 16t49.5 34t37.5 60.5t16 92.5v207q-37 -2 -72 -8t-82.5 -23 t-82 -42.5t-59 -71.5t-24.5 -105z" />
<glyph unicode="&#xe3;" horiz-adv-x="925" d="M53 270q0 49 15 91t38.5 72t60 55t70.5 41t79 29t77 19t72.5 11t58 6t41.5 2q15 2 19 7.5t4 31.5v41q0 57 -10.5 97.5t-24 60t-35.5 30t-34.5 12t-32.5 1.5q-150 0 -256 -103q-22 -20 -33 -20q-14 0 -19 11t-8 48q-6 48 -6 74q0 16 8 23t41 24q129 63 281 63 q180 0 268 -85t88 -234v-588q0 -53 -18 -71.5t-72 -18.5h-41q-56 0 -73 19.5t-17 70.5v51q-33 -59 -103.5 -110t-168.5 -51q-116 0 -192.5 87.5t-76.5 202.5zM170 1219q0 27 11.5 60t33.5 65.5t61.5 54.5t88.5 22q44 0 84.5 -16.5t65 -35.5t53 -35.5t50.5 -16.5 q26 0 41 18.5t22 44t9 27.5q10 14 53 14t57.5 -6.5t14.5 -32.5q0 -68 -53.5 -134t-140.5 -66q-44 0 -85 16t-66 36t-53.5 36t-49.5 16q-27 0 -42.5 -19t-22.5 -44t-9 -27q-8 -14 -53 -14h-2q-40 0 -54 6t-14 31zM268 274q0 -66 39 -114.5t99 -48.5q14 0 32.5 3t46.5 16 t49.5 34t37.5 60.5t16 92.5v207q-37 -2 -72 -8t-82.5 -23t-82 -42.5t-59 -71.5t-24.5 -105z" />
<glyph unicode="&#xe4;" horiz-adv-x="925" d="M53 270q0 49 15 91t38.5 72t60 55t70.5 41t79 29t77 19t72.5 11t58 6t41.5 2q15 2 19 7.5t4 31.5v41q0 57 -10.5 97.5t-24 60t-35.5 30t-34.5 12t-32.5 1.5q-150 0 -256 -103q-22 -20 -33 -20q-14 0 -19 11t-8 48q-6 48 -6 74q0 16 8 23t41 24q129 63 281 63 q180 0 268 -85t88 -234v-588q0 -53 -18 -71.5t-72 -18.5h-41q-56 0 -73 19.5t-17 70.5v51q-33 -59 -103.5 -110t-168.5 -51q-116 0 -192.5 87.5t-76.5 202.5zM170 1260v71q0 53 21.5 71.5t68.5 18.5h70q22 0 35 -2t28 -10t22 -26.5t7 -47.5v-67q0 -24 -1.5 -36.5t-9 -29.5 t-26 -25t-49.5 -8q-5 0 -14 1t-13 1h-45q-22 0 -35.5 2.5t-28.5 10.5t-22.5 27t-7.5 49zM268 274q0 -66 39 -114.5t99 -48.5q14 0 32.5 3t46.5 16t49.5 34t37.5 60.5t16 92.5v207q-37 -2 -72 -8t-82.5 -23t-82 -42.5t-59 -71.5t-24.5 -105zM549 1255v80q0 50 21.5 68 t68.5 18h70q46 0 69 -16.5t23 -71.5v-63q0 -23 -1.5 -34.5t-8.5 -30t-26.5 -27.5t-51.5 -9q-4 0 -12.5 1t-12.5 1h-45q-23 0 -35.5 2t-28 9t-23 25.5t-7.5 47.5z" />
<glyph unicode="&#xe5;" horiz-adv-x="925" d="M53 270q0 49 15 91t38.5 72t60 55t70.5 41t79 29t77 19t72.5 11t58 6t41.5 2q15 2 19 7.5t4 31.5v41q0 57 -10.5 97.5t-24 60t-35.5 30t-34.5 12t-32.5 1.5q-150 0 -256 -103q-22 -20 -33 -20q-14 0 -19 11t-8 48q-6 48 -6 74q0 16 8 23t41 24q129 63 281 63 q180 0 268 -85t88 -234v-588q0 -53 -18 -71.5t-72 -18.5h-41q-56 0 -73 19.5t-17 70.5v51q-33 -59 -103.5 -110t-168.5 -51q-116 0 -192.5 87.5t-76.5 202.5zM248 1217q0 30 9 57.5t31 56t68 45.5t111 17q62 0 106 -17.5t66 -46t31.5 -57t9.5 -58.5t-9 -57.5t-31 -56 t-68 -45.5t-111 -17q-62 0 -106 17.5t-66 46t-31.5 57t-9.5 58.5zM268 274q0 -66 39 -114.5t99 -48.5q14 0 32.5 3t46.5 16t49.5 34t37.5 60.5t16 92.5v207q-37 -2 -72 -8t-82.5 -23t-82 -42.5t-59 -71.5t-24.5 -105zM356 1217q0 -50 22.5 -78.5t82.5 -28.5t85 24.5t25 82.5 q0 49 -22 76.5t-82 27.5q-63 0 -87 -25.5t-24 -78.5z" />
<glyph unicode="&#xe6;" horiz-adv-x="1404" d="M53 254q0 67 35 119.5t89 83.5t127.5 51.5t142 28t141.5 8.5v145q-4 187 -135 187q-64 0 -119 -19t-84 -41.5t-54 -41.5t-36 -19q-4 0 -8 4q-21 13 -21 119q0 19 9 29.5t38 25.5q129 63 283 63q89 0 154.5 -20.5t119.5 -73.5h4q54 49 126.5 71.5t140.5 22.5q47 0 89 -9 t90.5 -37.5t83.5 -74.5t58 -127t23 -188q0 -30 -8 -48.5t-24.5 -26t-28.5 -9.5t-32 -2h-442q1 -40 4.5 -73.5t11.5 -78.5t24 -79.5t39.5 -65.5t61.5 -48t86 -17q59 0 119.5 27.5t102.5 74.5q3 3 9.5 10.5t9.5 11t8.5 8.5t9.5 7t8 2q28 0 28 -115q0 -21 -8.5 -32t-36.5 -35 q-109 -92 -262 -92q-90 0 -174.5 32.5t-146.5 98.5q-76 -70 -183 -100.5t-209 -30.5q-64 0 -116 25.5t-83.5 66t-48 87.5t-16.5 95zM272 256q0 -57 38 -100t100 -43q81 0 141.5 51.5t60.5 109.5q0 11 -9.5 57t-14.5 115q-28 -2 -42.5 -3.5t-52.5 -7.5t-62 -13.5t-57.5 -22 t-53 -33t-34 -47t-14.5 -63.5zM819 573h348q-2 61 -8 104.5t-21.5 90t-48 71.5t-81.5 25q-31 0 -60 -13.5t-57 -44.5t-47.5 -91t-24.5 -142z" />
<glyph unicode="&#xe7;" horiz-adv-x="864" d="M63 471q0 132 29.5 230.5t73 153.5t105 88.5t114 43.5t111.5 10q78 0 130 -12.5t105 -40.5q30 -15 40 -21t17 -16t7 -24q0 -23 -10.5 -73t-28.5 -50q-14 0 -34.5 14.5t-43 32.5t-71 32.5t-111.5 14.5q-42 0 -74.5 -14.5t-53.5 -35t-36 -54.5t-22.5 -62t-11.5 -70 t-4.5 -65.5t-0.5 -60.5v-25q0 -342 199 -342q65 0 119 21t81.5 45.5t50.5 45.5t33 21q31 0 31 -123q0 -20 -9.5 -32.5t-39.5 -34.5q-120 -88 -271 -88q-57 0 -109.5 11.5t-111.5 44.5t-101.5 85.5t-71.5 142.5t-30 207zM264 -315q0 22 142 237q19 26 30 31.5t45 5.5h21 q45 0 45 -25q0 -9 -25.5 -68.5t-50.5 -115.5l-25 -55q-8 -19 -17 -26t-30 -7h-90q-45 0 -45 23z" />
<glyph unicode="&#xe8;" horiz-adv-x="897" d="M53 489q0 117 27 208.5t69 146.5t99 90.5t112 49t113 13.5q179 0 274 -111.5t95 -322.5q0 -54 -19 -71t-71 -17h-488q0 -22 0.5 -40t5.5 -58t13 -71.5t26 -70t43 -64t64.5 -43t89.5 -17.5q22 0 47.5 4t63.5 15.5t78.5 39.5t74.5 68q15 18 27 18q16 0 20 -16q2 -5 6 -33 q6 -54 6 -74q0 -26 -43 -57t-86 -51q-98 -45 -202 -45q-64 0 -123.5 14t-119.5 50.5t-103.5 92.5t-71 146.5t-27.5 205.5zM266 571h400q-1 36 -3 59t-8.5 62.5t-19 66t-32.5 53.5t-52.5 40.5t-75.5 13.5q-67 0 -114.5 -44.5t-69 -108t-25.5 -142.5zM317 1395q0 22 37 22h140 q14 0 23 -2t17 -8t11.5 -10t12 -17.5t13.5 -19.5q156 -205 156 -227q0 -23 -41 -23h-37q-18 0 -28 3.5t-40.5 27.5t-80 69.5t-147.5 136.5l-3 3l-8 8q-8 7 -12 11.5t-8.5 12t-4.5 13.5z" />
<glyph unicode="&#xe9;" horiz-adv-x="897" d="M53 489q0 117 27 208.5t69 146.5t99 90.5t112 49t113 13.5q179 0 274 -111.5t95 -322.5q0 -54 -19 -71t-71 -17h-488q0 -22 0.5 -40t5.5 -58t13 -71.5t26 -70t43 -64t64.5 -43t89.5 -17.5q22 0 47.5 4t63.5 15.5t78.5 39.5t74.5 68q15 18 27 18q16 0 20 -16q2 -5 6 -33 q6 -54 6 -74q0 -26 -43 -57t-86 -51q-98 -45 -202 -45q-64 0 -123.5 14t-119.5 50.5t-103.5 92.5t-71 146.5t-27.5 205.5zM225 1135q0 13 95 143q34 47 55 76q36 50 46 56q12 7 34 7h139q39 0 39 -24q0 -10 -10.5 -21.5t-55.5 -52.5q-36 -33 -91 -84q-101 -94 -122.5 -109.5 t-48.5 -15.5h-35q-45 0 -45 25zM266 571h400q-1 36 -3 59t-8.5 62.5t-19 66t-32.5 53.5t-52.5 40.5t-75.5 13.5q-67 0 -114.5 -44.5t-69 -108t-25.5 -142.5z" />
<glyph unicode="&#xea;" horiz-adv-x="897" d="M53 489q0 117 27 208.5t69 146.5t99 90.5t112 49t113 13.5q179 0 274 -111.5t95 -322.5q0 -54 -19 -71t-71 -17h-488q0 -22 0.5 -40t5.5 -58t13 -71.5t26 -70t43 -64t64.5 -43t89.5 -17.5q22 0 47.5 4t63.5 15.5t78.5 39.5t74.5 68q15 18 27 18q16 0 20 -16q2 -5 6 -33 q6 -54 6 -74q0 -26 -43 -57t-86 -51q-98 -45 -202 -45q-64 0 -123.5 14t-119.5 50.5t-103.5 92.5t-71 146.5t-27.5 205.5zM143 1133q0 6 2.5 12t5.5 9.5t7.5 9.5t5.5 7l174 211q18 20 29.5 25.5t31.5 5.5h97q11 0 19 -1.5t13 -3t12 -7.5t10 -9.5t13.5 -16t16.5 -19.5 q30 -36 75 -91q67 -80 83 -101.5t16 -30.5q0 -23 -47 -23h-29q-29 0 -42.5 7.5t-49.5 39.5l-137 121h-3q-114 -109 -155 -139.5t-62 -30.5q-3 0 -8 1t-8 1h-16q-54 0 -54 23zM266 571h400q-1 36 -3 59t-8.5 62.5t-19 66t-32.5 53.5t-52.5 40.5t-75.5 13.5 q-67 0 -114.5 -44.5t-69 -108t-25.5 -142.5z" />
<glyph unicode="&#xeb;" horiz-adv-x="897" d="M53 489q0 117 27 208.5t69 146.5t99 90.5t112 49t113 13.5q179 0 274 -111.5t95 -322.5q0 -54 -19 -71t-71 -17h-488q0 -22 0.5 -40t5.5 -58t13 -71.5t26 -70t43 -64t64.5 -43t89.5 -17.5q22 0 47.5 4t63.5 15.5t78.5 39.5t74.5 68q15 18 27 18q16 0 20 -16q2 -5 6 -33 q6 -54 6 -74q0 -26 -43 -57t-86 -51q-98 -45 -202 -45q-64 0 -123.5 14t-119.5 50.5t-103.5 92.5t-71 146.5t-27.5 205.5zM133 1257v76q0 51 21.5 69.5t68.5 18.5h68q47 0 70.5 -16t23.5 -72v-63v-24t-4 -24.5t-11.5 -27t-24 -17t-40.5 -8.5h-6q-4 0 -13.5 1t-13.5 1h-55 q-16 0 -27.5 2t-26 9.5t-22.5 26.5t-8 48zM266 571h400q-1 36 -3 59t-8.5 62.5t-19 66t-32.5 53.5t-52.5 40.5t-75.5 13.5q-67 0 -114.5 -44.5t-69 -108t-25.5 -142.5zM510 1257q0 3 1 9.5t1 9.5v57q0 52 21 70t69 18h68q22 0 35.5 -2.5t28 -10.5t21.5 -26t7 -47v-67v-25.5 t-4.5 -24.5t-12.5 -26t-25.5 -15.5t-43.5 -7.5q-4 0 -13.5 1t-13.5 1h-45q-22 0 -35.5 2t-28.5 10t-22.5 26.5t-7.5 47.5z" />
<glyph unicode="&#xec;" horiz-adv-x="448" d="M-68 1395q0 22 37 22h140q14 0 23 -2t17 -8t11.5 -10t12 -17.5t13.5 -19.5q32 -39 93 -125.5t61 -101.5q0 -23 -41 -23h-53q-16 0 -59 36.5t-222 203.5l-8 8q-8 7 -12 11.5t-8.5 12t-4.5 13.5zM113 92v782q0 55 19 74t73 19h39q56 0 73 -19.5t17 -70.5v-787 q0 -53 -18 -71.5t-72 -18.5h-39q-55 0 -73.5 19t-18.5 73z" />
<glyph unicode="&#xed;" horiz-adv-x="448" d="M53 1135q0 3 1 6t4 8.5t6.5 11t10.5 16t14.5 20.5t20 27.5t25 34.5t31 43t37.5 52q36 50 46 56q12 7 34 7h139q39 0 39 -24q0 -10 -10.5 -21.5t-55.5 -52.5q-43 -39 -105 -97q-90 -84 -109.5 -98t-45.5 -14h-35q-47 0 -47 25zM113 92v782q0 55 19 74t73 19h39 q56 0 73 -19.5t17 -70.5v-787q0 -53 -18 -71.5t-72 -18.5h-39q-55 0 -73.5 19t-18.5 73z" />
<glyph unicode="&#xee;" horiz-adv-x="448" d="M-78 1133q0 18 195 249q18 20 29.5 25.5t31.5 5.5h96q11 0 19 -1.5t13 -2.5t12 -8t9.5 -10t13 -16t15.5 -19q158 -189 169 -208q5 -9 5 -15q0 -23 -45 -23h-28q-31 0 -43.5 7t-48.5 40l-138 121h-2q-25 -23 -164 -145q-17 -15 -31 -19t-50 -4h-5q-17 0 -26 1t-18 6t-9 16 zM115 92v782q0 55 19 74t73 19h39q56 0 73 -19.5t17 -70.5v-787q0 -53 -18 -71.5t-72 -18.5h-39q-55 0 -73.5 19t-18.5 73z" />
<glyph unicode="&#xef;" horiz-adv-x="557" d="M-35 1257v76q0 51 21.5 69.5t68.5 18.5h68q30 0 47.5 -4t32 -24t14.5 -58v-65v-24t-4 -24.5t-11.5 -27t-24 -17t-40.5 -8.5h-6q-5 0 -14 1t-13 1h-55q-16 0 -27.5 2t-26 9.5t-22.5 26.5t-8 48zM168 92v782q0 55 19 74t73 19h39q56 0 73 -19.5t17 -70.5v-787 q0 -53 -18 -71.5t-72 -18.5h-39q-55 0 -73.5 19t-18.5 73zM342 1257v66q0 23 1.5 34.5t9 29.5t28 26t53.5 8h68q22 0 35.5 -2.5t28 -10.5t21.5 -26t7 -47v-67v-25.5t-4.5 -24.5t-12.5 -26t-25.5 -15.5t-43.5 -7.5q-4 0 -13.5 1t-13.5 1h-45q-22 0 -35.5 2t-28.5 10 t-22.5 26.5t-7.5 47.5z" />
<glyph unicode="&#xf0;" d="M53 473q0 127 29.5 224t73.5 152t105 90t115 46.5t113 11.5h33q-39 53 -70.5 85.5t-78.5 74.5q-61 -39 -78 -39q-22 0 -56 58.5t-34 76.5q0 5 4 17q-2 1 -8.5 3.5t-9.5 3.5t-8.5 3.5t-8.5 4t-7.5 4t-7 5t-5 5.5t-3.5 6t-1 6q0 18 52.5 62t71.5 44q21 0 111 -45 q7 4 23.5 13.5t27 15.5t22 11t17.5 5q13 0 23.5 -13t48.5 -79q16 -32 16 -39q0 -11 -12 -26q72 -62 134 -137.5t116.5 -172t85.5 -216t31 -247.5t-31 -224.5t-76 -148.5t-107.5 -84t-113.5 -41t-107 -9q-62 0 -118.5 13t-114.5 47.5t-100.5 88t-69.5 142t-27 202.5zM283 467 q0 -342 202 -342q61 0 111.5 38t73.5 120q20 73 20 202q0 90 -16.5 176.5t-40.5 122.5q-23 37 -63.5 58.5t-84.5 21.5q-59 0 -100 -25.5t-62 -73t-30 -101t-10 -123.5v-74z" />
<glyph unicode="&#xf1;" horiz-adv-x="989" d="M111 92v795q0 55 19 73.5t73 18.5h33q56 0 73 -19.5t17 -70.5v-111h2q94 209 286 209q77 0 130 -21t81 -61.5t40 -89.5t12 -115v-610q0 -53 -18.5 -71.5t-72.5 -18.5h-47q-56 0 -73 19.5t-17 70.5v602q0 89 -23.5 126.5t-86.5 37.5q-79 0 -140 -72.5t-61 -203.5v-490 q0 -53 -18 -71.5t-72 -18.5h-45q-55 0 -73.5 19t-18.5 73zM170 1219q0 27 11.5 60t33.5 65.5t61.5 54.5t88.5 22q44 0 84.5 -16.5t65 -35.5t53 -35.5t50.5 -16.5q26 0 41 18.5t22 44t9 27.5q10 14 53 14t57.5 -6.5t14.5 -32.5q0 -68 -53.5 -134t-140.5 -66q-44 0 -85 16 t-66 36t-53.5 36t-49.5 16q-27 0 -42.5 -19t-22.5 -44t-9 -27q-8 -14 -53 -14h-2q-40 0 -54 6t-14 31z" />
<glyph unicode="&#xf2;" d="M53 475q0 236 105 375q57 77 144.5 112t182.5 35q58 0 112 -11.5t113.5 -45t100.5 -86.5q107 -135 107 -379q0 -241 -115 -369q-111 -126 -318 -126q-105 0 -189.5 36t-133.5 95q-109 133 -109 364zM281 500q0 -42 0.5 -65t4 -68.5t11 -73.5t22.5 -64t36 -56.5t54.5 -35 t75.5 -14.5q33 0 61 9t47.5 22.5t35.5 36.5t26 43.5t17 52.5t10.5 54t5.5 57t2 52.5v49.5q0 41 -0.5 64t-4.5 66.5t-11 71t-22 62t-36.5 54.5t-55 34t-75.5 14t-75.5 -14t-54.5 -33.5t-36 -54.5t-22.5 -61.5t-11 -71t-4 -67t-0.5 -64.5zM301 1395q0 22 37 22h139 q14 0 23 -1.5t17.5 -8.5t11.5 -10.5t12.5 -17t13.5 -19.5q156 -205 156 -227q0 -23 -41 -23h-37q-18 0 -28 3.5t-40.5 27.5t-80 69.5t-147.5 136.5l-3 3l-8 8q-8 7 -12 11.5t-8.5 12t-4.5 13.5z" />
<glyph unicode="&#xf3;" d="M53 475q0 236 105 375q57 77 144.5 112t182.5 35q58 0 112 -11.5t113.5 -45t100.5 -86.5q107 -135 107 -379q0 -241 -115 -369q-111 -126 -318 -126q-105 0 -189.5 36t-133.5 95q-109 133 -109 364zM281 500q0 -42 0.5 -65t4 -68.5t11 -73.5t22.5 -64t36 -56.5t54.5 -35 t75.5 -14.5q33 0 61 9t47.5 22.5t35.5 36.5t26 43.5t17 52.5t10.5 54t5.5 57t2 52.5v49.5q0 41 -0.5 64t-4.5 66.5t-11 71t-22 62t-36.5 54.5t-55 34t-75.5 14t-75.5 -14t-54.5 -33.5t-36 -54.5t-22.5 -61.5t-11 -71t-4 -67t-0.5 -64.5zM371 1135q0 10 20 39.5t91 127.5 q24 33 38 52q36 50 46 56q12 7 34 7h139q39 0 39 -24q0 -10 -11 -22t-54 -52q-41 -38 -102 -95q-104 -96 -124 -107q-13 -7 -36 -7h-35q-45 0 -45 25z" />
<glyph unicode="&#xf4;" d="M53 475q0 236 105 375q57 77 144.5 112t182.5 35q58 0 112 -11.5t113.5 -45t100.5 -86.5q107 -135 107 -379q0 -241 -115 -369q-111 -126 -318 -126q-105 0 -189.5 36t-133.5 95q-109 133 -109 364zM180 1133q0 13 96 128q14 18 23 28.5t25 29.5t30 37q4 4 12 14.5t10 13 t8 9t9 8t8.5 5.5t10.5 4.5t11.5 1.5t14.5 1h97q20 0 31.5 -5.5t29.5 -25.5l174 -211q1 -1 5.5 -7t7.5 -9.5t5.5 -9.5t2.5 -12q0 -23 -54 -23h-4q-44 0 -57.5 6t-54.5 43q-101 88 -134 119h-2l-161 -143q-19 -16 -31.5 -20.5t-36.5 -4.5h-29q-47 0 -47 23zM281 500 q0 -42 0.5 -65t4 -68.5t11 -73.5t22.5 -64t36 -56.5t54.5 -35t75.5 -14.5q33 0 61 9t47.5 22.5t35.5 36.5t26 43.5t17 52.5t10.5 54t5.5 57t2 52.5v49.5q0 41 -0.5 64t-4.5 66.5t-11 71t-22 62t-36.5 54.5t-55 34t-75.5 14t-75.5 -14t-54.5 -33.5t-36 -54.5t-22.5 -61.5 t-11 -71t-4 -67t-0.5 -64.5z" />
<glyph unicode="&#xf5;" d="M53 475q0 236 105 375q57 77 144.5 112t182.5 35q58 0 112 -11.5t113.5 -45t100.5 -86.5q107 -135 107 -379q0 -241 -115 -369q-111 -126 -318 -126q-105 0 -189.5 36t-133.5 95q-109 133 -109 364zM164 1219q0 27 11.5 60t33 65.5t61 54.5t88.5 22q55 0 104 -26t86 -52 t64 -26q26 0 41 18.5t22 44t9 27.5q10 14 53 14t57.5 -6.5t14.5 -32.5q0 -68 -54 -134t-141 -66q-44 0 -85 16t-66 36t-53.5 36t-49.5 16q-27 0 -42.5 -19t-22 -44t-8.5 -27q-8 -14 -54 -14h-2q-40 0 -53.5 6t-13.5 31zM281 500q0 -42 0.5 -65t4 -68.5t11 -73.5t22.5 -64 t36 -56.5t54.5 -35t75.5 -14.5q33 0 61 9t47.5 22.5t35.5 36.5t26 43.5t17 52.5t10.5 54t5.5 57t2 52.5v49.5q0 41 -0.5 64t-4.5 66.5t-11 71t-22 62t-36.5 54.5t-55 34t-75.5 14t-75.5 -14t-54.5 -33.5t-36 -54.5t-22.5 -61.5t-11 -71t-4 -67t-0.5 -64.5z" />
<glyph unicode="&#xf6;" d="M53 475q0 236 105 375q57 77 144.5 112t182.5 35q58 0 112 -11.5t113.5 -45t100.5 -86.5q107 -135 107 -379q0 -241 -115 -369q-111 -126 -318 -126q-105 0 -189.5 36t-133.5 95q-109 133 -109 364zM170 1260v71q0 53 21.5 71.5t68.5 18.5h70q22 0 35 -2t28 -10t22 -26.5 t7 -47.5v-67q0 -24 -1.5 -36.5t-9 -29.5t-26 -25t-49.5 -8q-5 0 -14 1t-13 1h-45q-22 0 -35.5 2.5t-28.5 10.5t-22.5 27t-7.5 49zM281 500q0 -42 0.5 -65t4 -68.5t11 -73.5t22.5 -64t36 -56.5t54.5 -35t75.5 -14.5q33 0 61 9t47.5 22.5t35.5 36.5t26 43.5t17 52.5t10.5 54 t5.5 57t2 52.5v49.5q0 41 -0.5 64t-4.5 66.5t-11 71t-22 62t-36.5 54.5t-55 34t-75.5 14t-75.5 -14t-54.5 -33.5t-36 -54.5t-22.5 -61.5t-11 -71t-4 -67t-0.5 -64.5zM549 1255v80q0 51 21.5 68.5t68.5 17.5h70q46 0 69 -16.5t23 -71.5v-63q0 -23 -1.5 -34.5t-8.5 -30 t-26.5 -27.5t-51.5 -9q-4 0 -12.5 1t-12.5 1h-45q-23 0 -35.5 2t-28 9t-23 25.5t-7.5 47.5z" />
<glyph unicode="&#xf7;" horiz-adv-x="1513" d="M109 541q0 26 17 45t44 24q14 2 45 2h1096q28 0 47 -8t27 -21.5t11 -23.5t3 -20q0 -27 -20 -48.5t-72 -21.5h-1108q-51 0 -70.5 21.5t-19.5 50.5zM596 -37v117q0 26 2 40.5t10 31.5t28 24.5t52 7.5h125q48 0 73 -17.5t25 -74.5v-127q0 -46 -18.5 -71t-67.5 -25h-145 q-84 0 -84 94zM596 989v117q0 20 0.5 27.5t5 26t13.5 26.5t28.5 16t48.5 8h121q48 0 73 -17.5t25 -74.5v-119q0 -22 -2 -36t-9.5 -32t-26 -27t-48.5 -9h-139q-51 0 -70.5 24.5t-19.5 69.5z" />
<glyph unicode="&#xf8;" d="M53 473q0 91 15 167t40 129.5t60.5 94.5t73 65.5t81.5 40.5t83 21.5t79 5.5q88 0 170 -30q51 114 81.5 166t43 60.5t33.5 8.5q26 0 46 -17.5t20 -45.5q0 -20 -44 -109.5t-67 -130.5q150 -136 150 -426q0 -114 -26.5 -202.5t-69 -142t-101 -88t-115.5 -47.5t-119 -13 q-82 0 -168 26q-54 -117 -84.5 -170.5t-43 -62.5t-33.5 -9q-20 0 -43 17t-23 53q0 11 41 93q40 80 72 145q-152 125 -152 401zM262 471q0 -155 29 -229l299 598q-57 24 -105 24q-60 0 -110 -31t-78 -96q-16 -36 -24.5 -84t-9.5 -79.5t-1 -88.5v-14zM385 135q46 -22 100 -22 q68 0 120 34t79 105q25 66 25 209v18q0 55 -1 84t-7 73.5t-19 86.5h-2z" />
<glyph unicode="&#xf9;" horiz-adv-x="989" d="M111 264v610q0 55 19 74t73 19h45q56 0 73 -19.5t17 -70.5v-627q0 -96 23 -129t100 -33q65 0 109 44.5t61.5 105.5t17.5 133v506q0 53 18 71.5t72 18.5h47q56 0 73.5 -20t17.5 -70v-787q0 -53 -18.5 -71.5t-72.5 -18.5h-41q-56 0 -73 19.5t-17 70.5v64 q-78 -174 -245 -174q-155 0 -227 65.5t-72 218.5zM283 1395q0 22 36 22h138q14 0 23 -2t17.5 -8t12 -10t13 -17t14.5 -20q43 -56 97 -135t54 -92q0 -23 -39 -23h-53q-17 0 -55.5 33t-227.5 207q-30 30 -30 45z" />
<glyph unicode="&#xfa;" horiz-adv-x="989" d="M111 264v610q0 55 19 74t73 19h45q56 0 73 -19.5t17 -70.5v-627q0 -96 23 -129t100 -33q65 0 109 44.5t61.5 105.5t17.5 133v506q0 53 18 71.5t72 18.5h47q56 0 73.5 -20t17.5 -70v-787q0 -53 -18.5 -71.5t-72.5 -18.5h-41q-56 0 -73 19.5t-17 70.5v64 q-78 -174 -245 -174q-155 0 -227 65.5t-72 218.5zM268 1135q0 3 1 6t4 8.5t6.5 11t10.5 16t14.5 20.5t20 27.5t25 34.5t31 43t37.5 52q36 50 46 56q12 7 34 7h139q39 0 39 -24q0 -10 -10.5 -21.5t-55.5 -52.5q-43 -39 -105 -97q-90 -84 -109.5 -98t-45.5 -14h-35 q-47 0 -47 25z" />
<glyph unicode="&#xfb;" horiz-adv-x="989" d="M111 264v610q0 55 19 74t73 19h45q56 0 73 -19.5t17 -70.5v-627q0 -96 23 -129t100 -33q65 0 109 44.5t61.5 105.5t17.5 133v506q0 53 18 71.5t72 18.5h47q56 0 73.5 -20t17.5 -70v-787q0 -53 -18.5 -71.5t-72.5 -18.5h-41q-56 0 -73 19.5t-17 70.5v64 q-78 -174 -245 -174q-155 0 -227 65.5t-72 218.5zM188 1133q0 18 195 249q18 20 29.5 25.5t31.5 5.5h97q28 0 43 -13t74 -85q11 -14 18 -22t18.5 -22.5t22.5 -27.5q7 -9 21 -25.5t22.5 -27t18 -23t14 -21t4.5 -13.5q0 -23 -45 -23h-29q-31 0 -43.5 7t-48.5 40l-137 121h-2 q-25 -23 -164 -145q-17 -15 -31 -19t-51 -4h-6q-52 0 -52 23z" />
<glyph unicode="&#xfc;" horiz-adv-x="989" d="M111 264v610q0 55 19 74t73 19h45q56 0 73 -19.5t17 -70.5v-627q0 -96 23 -129t100 -33q65 0 109 44.5t61.5 105.5t17.5 133v506q0 53 18 71.5t72 18.5h47q56 0 73.5 -20t17.5 -70v-787q0 -53 -18.5 -71.5t-72.5 -18.5h-41q-56 0 -73 19.5t-17 70.5v64 q-78 -174 -245 -174q-155 0 -227 65.5t-72 218.5zM178 1260v71q0 51 20.5 70.5t69.5 19.5h68q22 0 35.5 -2t28.5 -9.5t22.5 -25.5t7.5 -47q0 -3 -1 -9t-1 -9v-64q0 -47 -20 -66.5t-66 -19.5q-4 0 -13 1t-14 1h-43q-48 0 -71 16.5t-23 72.5zM557 1255v80q0 50 21 68t67 18h70 q23 0 36 -2t27.5 -10.5t21.5 -27.5t7 -50v-69q0 -48 -18 -70.5t-68 -22.5q-5 0 -14 1t-13 1h-45q-22 0 -35 2t-28 9.5t-22 25.5t-7 47z" />
<glyph unicode="&#xfd;" horiz-adv-x="880" d="M49 918q0 23 14 34.5t27 13t35 1.5h25q67 0 89.5 -24.5t59.5 -125.5q164 -432 170 -575q10 121 84 379l76 264q7 24 16.5 40t18.5 24.5t25 12.5t27 4.5t34 0.5q27 0 42 -2t29.5 -14t14.5 -36q0 -4 -11 -38l-293 -981q-34 -112 -116 -185t-197 -73q-35 0 -80.5 6t-56.5 14 q-7 5 -13 58t-6 73q0 29 25 29q2 0 3 -0.5l4 -2l7 -3.5q61 -29 119 -29q84 0 123 70q11 18 30 74t19 71q0 6 -8 31l-326 852q-10 27 -10 37zM326 1135q0 10 20 39.5t91 127.5q8 11 12.5 17l12 16t13.5 19q36 50 46 56q12 7 34 7h139q39 0 39 -24q0 -10 -11 -22t-54 -52 q-41 -38 -102 -95q-104 -96 -124 -107q-13 -7 -36 -7h-35q-45 0 -45 25z" />
<glyph unicode="&#xfe;" horiz-adv-x="989" d="M113 -254v1585q0 49 19 69.5t71 20.5h45q30 0 49 -7t27 -22t10 -28.5t2 -36.5v-457q105 117 254 117q45 0 86.5 -11t88 -44.5t80.5 -87t56.5 -146.5t22.5 -215q0 -119 -25.5 -211.5t-64.5 -146t-92 -87.5t-101.5 -46t-99.5 -12q-117 0 -199 94v-326q0 -19 -2 -31.5 t-10 -27.5t-26.5 -23t-47.5 -8h-53q-44 0 -67 18t-23 70zM340 227q0 -51 45.5 -82.5t95.5 -31.5q29 0 55.5 8t56.5 32t51.5 63.5t35.5 108.5t14 160q0 87 -13 154t-32.5 104.5t-47 61.5t-51.5 31.5t-50 7.5q-52 0 -106 -30.5t-54 -80.5q0 -3 1 -8t1 -8v-473q0 -3 -1 -9 t-1 -8z" />
<glyph unicode="&#xff;" horiz-adv-x="880" d="M49 918q0 23 14 34.5t27 13t35 1.5h25q67 0 89.5 -24.5t59.5 -125.5q164 -432 170 -575q10 121 84 379l76 264q7 24 16.5 40t18.5 24.5t25 12.5t27 4.5t34 0.5q27 0 42 -2t29.5 -14t14.5 -36q0 -4 -11 -38l-293 -981q-34 -112 -116 -185t-197 -73q-35 0 -80.5 6t-56.5 14 q-7 5 -13 58t-6 73q0 29 25 29q2 0 3 -0.5l4 -2l7 -3.5q61 -29 119 -29q84 0 123 70q11 18 30 74t19 71q0 6 -8 31l-326 852q-10 27 -10 37zM125 1260v71q0 53 21.5 71.5t68.5 18.5h70q22 0 35 -2t28 -10t22 -26.5t7 -47.5v-67q0 -23 -1.5 -35.5t-9 -30t-26 -25.5t-49.5 -8 q-5 0 -14 1t-13 1h-45q-22 0 -35.5 2.5t-28.5 10.5t-22.5 27t-7.5 49zM504 1255v80q0 51 21.5 68.5t68.5 17.5h70q46 0 69 -16.5t23 -71.5v-73q0 -47 -19 -69t-69 -22q-4 0 -12.5 1t-12.5 1h-45q-23 0 -35.5 2t-28 9t-23 25.5t-7.5 47.5z" />
<glyph unicode="&#x152;" horiz-adv-x="1894" d="M57 700q0 134 23.5 246t62 189t92.5 137t110.5 95t122 57t121 30t111.5 8q62 0 173 -20.5t210 -20.5h615q30 0 49 -7.5t27 -22.5t10 -27t2 -31q0 -51 -16.5 -73.5t-71.5 -22.5q-20 0 -245.5 3t-285.5 3v-424h475q46 0 67.5 -18t21.5 -66q0 -16 -2 -27.5t-9.5 -25.5 t-26 -21.5t-46.5 -7.5h-480v-463l559 9q29 0 47.5 -8t26.5 -23.5t10 -29t2 -34.5q0 -30 -2 -45t-10.5 -31t-28 -22t-53.5 -6h-669q-63 0 -174 -20.5t-173 -20.5q-60 0 -117 8t-122.5 30t-122 56.5t-110 92.5t-91 133.5t-60 183t-22.5 237.5zM303 741q0 -372 143 -532 q104 -117 263 -117q57 0 93 11.5t61 34.5t37.5 70t17 106t4.5 155v479q0 81 -2.5 132.5t-10.5 98.5t-22 72.5t-38.5 44.5t-57.5 26t-82 7q-38 0 -74 -6.5t-77.5 -24t-77 -45t-69 -73.5t-57 -105.5t-37.5 -145t-14 -188.5z" />
<glyph unicode="&#x153;" horiz-adv-x="1513" d="M53 485q0 91 15.5 166t41.5 127t62.5 92t74.5 63.5t82 38.5t81 20t75 5q55 0 105.5 -11t82 -24t63 -35t43.5 -32.5t30 -28.5q114 131 303 131q39 0 74.5 -6.5t76.5 -23t74.5 -49t61.5 -79t43.5 -118.5t15.5 -162q0 -30 -8.5 -48.5t-25 -25.5t-27.5 -8.5t-29 -1.5h-444 q5 -362 223 -362q60 0 110.5 21.5t77 48t49 48t33.5 21.5q4 0 6 -2q23 -10 23 -111q0 -19 -7.5 -30t-33.5 -33q-116 -96 -266 -96q-65 0 -120.5 13t-99 39.5t-59.5 39t-43 38.5q-2 1 -3.5 2.5l-2.5 2.5q-118 -135 -326 -135q-39 0 -76.5 5.5t-81.5 20.5t-82 38.5t-74 63 t-61.5 91t-41 125t-15.5 161.5zM270 473q4 -151 33 -227q17 -42 39 -70q57 -63 143 -63q34 0 65 11.5t62.5 39t52.5 83t27 132.5q2 31 2 94v64q0 127 -26 196q-18 53 -63.5 92t-119.5 39q-64 0 -112 -33q-83 -55 -99 -208q0 -6 -1 -19t-1 -20q0 -8 -1 -24.5t-1 -24.5v-62z M926 573h348q-2 61 -7.5 104t-21 90t-48 72t-81.5 25q-69 0 -124 -67t-66 -224z" />
<glyph unicode="&#x178;" horiz-adv-x="1302" d="M39 1378q0 15 6.5 24.5t19.5 13t22 4.5t24 1h84q21 0 33 -1.5t34 -7t41 -22t35 -42.5l231 -387q73 -125 99 -183q13 40 99 188.5t163 273.5t84 134q41 47 125 47h51q16 0 25 -1t22 -4.5t19 -13t6 -24.5q0 -7 -19 -41l-471 -770v-479q0 -55 -20 -71.5t-70 -16.5h-64 q-54 0 -72 18.5t-18 71.5v479l-477 777q-12 18 -12 32zM336 1602v71q0 51 20.5 70.5t69.5 19.5h68q30 0 47.5 -4t32 -24t14.5 -58v-80q0 -43 -19 -64.5t-69 -21.5h-70q-47 0 -70.5 17.5t-23.5 73.5zM715 1597v70q0 18 0.5 26.5t5 24.5t13 24t27 14.5t44.5 6.5h67 q22 0 36 -2.5t28.5 -11t21.5 -27.5t7 -49v-71q0 -50 -20 -70.5t-66 -20.5h-70q-23 0 -36.5 2t-28.5 10t-22 26.5t-7 47.5z" />
<glyph unicode="&#x2c6;" d="M182 1133q0 6 2.5 12t5.5 9.5t7.5 9.5t5.5 7l174 211q18 20 29.5 25.5t31.5 5.5h97q16 0 27.5 -4.5t16.5 -9t17 -19t20 -22.5q6 -6 76 -90.5t84 -102.5q15 -20 15 -32q0 -23 -46 -23h-28q-31 0 -43.5 7t-48.5 40l-138 121h-2q-120 -112 -158.5 -141t-64.5 -29 q-3 0 -10.5 1t-11.5 1h-4q-17 0 -26 1t-18.5 6t-9.5 16z" />
<glyph unicode="&#x2dc;" d="M164 1120q0 27 11.5 60t33 66t61 55t88.5 22q55 0 104 -26t86 -52t64 -26q26 0 41 18.5t22 44t9 27.5q10 14 53 14t57.5 -6.5t14.5 -32.5q0 -68 -54 -134.5t-141 -66.5q-56 0 -105 26.5t-86 52.5t-63 26q-27 0 -42.5 -19t-22 -44t-8.5 -27q-9 -15 -54 -15h-2 q-40 0 -53.5 6t-13.5 31z" />
<glyph unicode="&#x2000;" horiz-adv-x="935" />
<glyph unicode="&#x2001;" horiz-adv-x="1870" />
<glyph unicode="&#x2002;" horiz-adv-x="935" />
<glyph unicode="&#x2003;" horiz-adv-x="1870" />
<glyph unicode="&#x2004;" horiz-adv-x="623" />
<glyph unicode="&#x2005;" horiz-adv-x="467" />
<glyph unicode="&#x2006;" horiz-adv-x="311" />
<glyph unicode="&#x2007;" horiz-adv-x="311" />
<glyph unicode="&#x2008;" horiz-adv-x="233" />
<glyph unicode="&#x2009;" horiz-adv-x="374" />
<glyph unicode="&#x200a;" horiz-adv-x="103" />
<glyph unicode="&#x2010;" horiz-adv-x="649" d="M23 483q0 66 83 66h349q34 0 54 -14t24 -27t4 -25q0 -25 -18 -45t-66 -20h-347q-83 0 -83 65z" />
<glyph unicode="&#x2011;" horiz-adv-x="649" d="M23 483q0 66 83 66h349q34 0 54 -14t24 -27t4 -25q0 -25 -18 -45t-66 -20h-347q-83 0 -83 65z" />
<glyph unicode="&#x2012;" horiz-adv-x="649" d="M23 483q0 66 83 66h349q34 0 54 -14t24 -27t4 -25q0 -25 -18 -45t-66 -20h-347q-83 0 -83 65z" />
<glyph unicode="&#x2013;" d="M0 598q0 66 90 66h791q90 0 90 -66t-90 -66h-791q-90 0 -90 66z" />
<glyph unicode="&#x2014;" horiz-adv-x="1943" d="M0 598q0 66 90 66h1763q91 0 91 -66t-91 -66h-1763q-90 0 -90 66z" />
<glyph unicode="&#x2018;" horiz-adv-x="540" d="M160 1042v97q0 33 2.5 42t21.5 48q15 30 37 78q39 84 51.5 99t44.5 15h7q51 0 51 -26q0 -9 -14 -59t-28 -96l-14 -46h15q15 0 23 -2t14 -13t6 -32v-117q0 -16 -1 -23t-5 -15.5t-14 -11.5t-27 -3h-123q-32 0 -39.5 11.5t-7.5 53.5z" />
<glyph unicode="&#x2019;" horiz-adv-x="540" d="M162 1001q0 11 57 203q-41 0 -49 7.5t-8 45.5v111q0 39 7 46t44 7h115q37 0 44 -7t7 -46v-111q0 -24 -2.5 -34t-14.5 -37q-66 -139 -86 -176q-11 -24 -19 -28.5t-40 -4.5q-20 0 -26 0.5t-15 2.5t-11.5 7t-2.5 14z" />
<glyph unicode="&#x201a;" horiz-adv-x="540" d="M162 53v111q0 39 7 46t44 7h115q37 0 44 -7t7 -46v-111q0 -24 -2.5 -34t-14.5 -37q-72 -150 -86 -177q-10 -23 -18.5 -27.5t-40.5 -4.5q-20 0 -26 0.5t-15 2.5t-11.5 7t-2.5 14q0 11 57 203q-41 0 -49 7.5t-8 45.5z" />
<glyph unicode="&#x201c;" horiz-adv-x="649" d="M8 1042v97v15v10.5t1.5 9.5t1.5 7t3 9l4.5 9t6.5 13.5t8 16.5q15 30 37 78q39 84 51.5 99t44.5 15h6q51 0 51 -26q0 -9 -13.5 -59t-27.5 -96l-14 -46h14q15 0 23 -2t14 -13t6 -32v-117q0 -16 -1 -23t-5 -15.5t-14 -11.5t-27 -3h-123q-32 0 -39.5 11.5t-7.5 53.5z M418 1042v97q0 33 2.5 42t21.5 48q15 30 37 78q39 84 51.5 99t44.5 15h7q51 0 51 -26q0 -9 -13.5 -59t-27.5 -96l-14 -46h14q15 0 23 -2t14 -13t6 -32v-117q0 -16 -1 -23t-5 -15.5t-14 -11.5t-27 -3h-123q-32 0 -39.5 11.5t-7.5 53.5z" />
<glyph unicode="&#x201d;" horiz-adv-x="649" d="M10 1001q0 7 58 203q-41 0 -49.5 7.5t-8.5 45.5v111q0 39 7 46t44 7h115q37 0 44 -7t7 -46v-111q0 -26 -2 -35.5t-14 -35.5q-66 -139 -86 -176q-11 -24 -19 -28.5t-40 -4.5q-20 0 -26 0.5t-15.5 2.5t-12 7t-2.5 14zM420 1001q0 11 57 203q-41 0 -49 7.5t-8 45.5v111 q0 39 7 46t44 7h115q37 0 44 -7t7 -46v-111q0 -26 -2 -35.5t-14 -35.5q-66 -139 -86 -176q-11 -23 -19.5 -28t-40.5 -5q-20 0 -26 0.5t-15 2.5t-11.5 7t-2.5 14z" />
<glyph unicode="&#x201e;" horiz-adv-x="649" d="M10 53v111q0 39 7 46t44 7h115q37 0 44 -7t7 -46v-111q0 -26 -2 -35.5t-14 -35.5q-72 -150 -86 -177q-10 -23 -18.5 -27.5t-40.5 -4.5q-20 0 -26 0.5t-15.5 2.5t-12 7t-2.5 14q0 7 58 203q-41 0 -49.5 7.5t-8.5 45.5zM420 53v111q0 39 7 46t44 7h115q37 0 44 -7t7 -46 v-111q0 -26 -2 -35.5t-14 -35.5q-72 -150 -86 -177q-10 -23 -18.5 -27.5t-41.5 -4.5q-20 0 -26 0.5t-15 2.5t-11.5 7t-2.5 14q0 11 57 203q-41 0 -49 7.5t-8 45.5z" />
<glyph unicode="&#x2022;" d="M106 543q0 174 102 274.5t277 100.5q167 0 271 -96.5t104 -282.5q0 -176 -101 -276.5t-276 -100.5q-167 0 -272 97.5t-105 283.5z" />
<glyph unicode="&#x2026;" horiz-adv-x="1622" d="M160 47v88q0 53 6 67.5t35 14.5h131q26 0 35.5 -8.5t9.5 -34.5v-106q0 -40 -6.5 -53.5t-34.5 -14.5h-131q-29 0 -37 10.5t-8 36.5zM700 47v88q0 53 6 67.5t35 14.5h131q26 0 36 -9t10 -34v-106q0 -40 -6.5 -53.5t-34.5 -14.5h-132q-29 0 -37 10.5t-8 36.5zM1241 47v88 q0 53 6 67.5t35 14.5h131q26 0 35.5 -8.5t9.5 -34.5v-106q0 -40 -6.5 -53.5t-34.5 -14.5h-131q-29 0 -37 10.5t-8 36.5z" />
<glyph unicode="&#x202f;" horiz-adv-x="374" />
<glyph unicode="&#x2039;" horiz-adv-x="864" d="M219 541q0 13 14 41l269 458q13 24 24 32.5t35 8.5h41q41 0 41 -26q0 -17 -96 -257t-96 -253q0 -23 96 -261.5t96 -256.5q0 -27 -41 -27h-41q-26 0 -35 7.5t-24 33.5l-269 461q-14 28 -14 39z" />
<glyph unicode="&#x203a;" horiz-adv-x="864" d="M219 27q0 17 96.5 257t96.5 253q0 24 -96.5 263.5t-96.5 254.5q0 26 41 26h41q25 0 34.5 -7.5t22.5 -31.5l269 -460q16 -32 16 -41q0 -11 -14 -39l-271 -465q-13 -22 -23.5 -29.5t-35.5 -7.5h-37q-43 0 -43 27z" />
<glyph unicode="&#x205f;" horiz-adv-x="467" />
<glyph unicode="&#x20ac;" horiz-adv-x="1404" d="M4 477q0 14 57 146q12 28 23 35.5t37 7.5h51v90h-115q-18 0 -27.5 1t-17.5 7t-8 18q0 13 57 144q11 30 22 37.5t36 7.5h102q84 210 266.5 330t395.5 120q75 0 150 -17.5t131.5 -43.5t101.5 -55t68.5 -53.5t23.5 -37.5q0 -17 -34 -96.5t-48 -85.5q-8 0 -9.5 -2t-9 2.5 t-9 5.5t-8 6.5t-7.5 6.5q-150 143 -350 143q-38 0 -78.5 -7t-100 -27t-120 -68.5t-109.5 -120.5h719q51 0 51 -25q0 -6 -1 -11.5t-5.5 -16t-10 -22.5t-17 -39t-23.5 -58q-13 -30 -24 -36.5t-42 -6.5h-721v-90h662q51 0 51 -25q0 -17 -55 -145q-11 -27 -22 -36t-36 -9h-526 q68 -99 171.5 -160.5t240.5 -61.5q125 0 232 43.5t186 108.5q21 16 36 16q13 0 18 -14t3 -29v-125q0 -25 -3 -35.5t-22.5 -29t-64.5 -47.5q-178 -117 -389 -117q-99 0 -191 25.5t-164.5 68.5t-133.5 101t-103.5 122.5t-69.5 133.5h-164q-17 0 -26.5 1t-18 7t-8.5 18z" />
<glyph unicode="&#x2122;" horiz-adv-x="1296" d="M2 1470q0 26 31 46t106 20h375q49 0 76 -9.5t53 -35.5q1 47 35 66.5t80 19.5q16 0 29.5 -2t25 -6.5t20 -9t16.5 -12.5t12.5 -13t10.5 -15.5t8 -14.5t7 -15.5t6 -13.5q47 -95 78 -164h2l76 159q1 3 11 24.5t17 30.5t22 24t37 21.5t52 6.5q45 0 79.5 -19.5t35.5 -66.5v-672 q0 -90 -115 -90q-113 0 -115 86v219q-41 -35 -98 -35h-2q-57 0 -103 33v-215q0 -88 -114 -88q-45 0 -79 19t-34 65v590q0 31 -2 47q-23 -27 -50.5 -36t-78.5 -9h-74v-584q0 -92 -114 -92q-110 0 -113 80v18v578h-74q-72 0 -103.5 20t-31.5 45z" />
<glyph unicode="&#x25fc;" horiz-adv-x="962" d="M0 0v963h963v-963h-963z" />
</font>
</defs>
</svg>
